<?xml version="1.0" encoding="utf-8"?>
<!-- Generator: Adobe Illustrator 19.0.0, SVG Export Plug-In . SVG Version: 6.00 Build 0)  -->
<svg version="1.1" id="Layer_1" xmlns="http://www.w3.org/2000/svg" xmlns:xlink="http://www.w3.org/1999/xlink" x="0px" y="0px"
	 viewBox="0 0 512 512" style="enable-background:new 0 0 512 512;" xml:space="preserve">
<style type="text/css">
	.st0{fill:#FFFFFF;}
</style>
<g id="XMLID_2_">
	<g id="XMLID_65_">
		<path id="XMLID_66_" class="st0" d="M164.3,12.6c-4.8-4.8-12.5-5-17.1-0.4c-4.6,4.6-4.5,12.3,0.4,17.1c4.8,4.8,12.5,5,17.1,0.3
			C169.3,25.1,169.2,17.4,164.3,12.6z M164.7,29.7L164.7,29.7"/>
	</g>
	<g id="XMLID_61_">
		<path id="XMLID_62_" class="st0" d="M194,42.3c-4.8-4.8-12.5-5-17.1-0.4c-4.6,4.6-4.5,12.3,0.4,17.1c4.8,4.8,12.5,5,17.1,0.3
			C199,54.8,198.9,47.1,194,42.3z M194.4,59.4L194.4,59.4"/>
	</g>
	<g id="XMLID_57_">
		<path id="XMLID_58_" class="st0" d="M223.7,72c-4.8-4.8-12.5-5-17.1-0.4c-4.6,4.6-4.5,12.3,0.4,17.1c4.8,4.8,12.5,5,17.1,0.3
			C228.7,84.5,228.6,76.8,223.7,72z M224.1,89.1L224.1,89.1"/>
	</g>
	<g id="XMLID_53_">
		<path id="XMLID_54_" class="st0" d="M253.5,101.7c-4.8-4.8-12.5-5-17.1-0.4c-4.6,4.6-4.5,12.3,0.4,17.1c4.8,4.8,12.5,5,17.1,0.3
			C258.4,114.2,258.3,106.5,253.5,101.7z M253.8,118.8L253.8,118.8"/>
	</g>
	<g id="XMLID_49_">
		<path id="XMLID_50_" class="st0" d="M283.2,131.4c-4.8-4.8-12.5-5-17.1-0.4c-4.6,4.6-4.5,12.3,0.4,17.1c4.8,4.8,12.5,5,17.1,0.3
			C288.2,143.9,288,136.2,283.2,131.4z M283.5,148.5L283.5,148.5"/>
	</g>
	<g id="XMLID_45_">
		<path id="XMLID_46_" class="st0" d="M312.9,161.1c-4.8-4.8-12.5-5-17.1-0.4c-4.6,4.6-4.5,12.3,0.4,17.1c4.8,4.8,12.5,5,17.1,0.3
			C317.9,173.6,317.7,166,312.9,161.1z M313.2,178.3L313.2,178.3"/>
	</g>
	<g id="XMLID_41_">
		<path id="XMLID_42_" class="st0" d="M342.6,190.8c-4.8-4.8-12.5-5-17.1-0.4c-4.6,4.6-4.5,12.3,0.4,17.1c4.8,4.8,12.5,5,17.1,0.3
			C347.6,203.3,347.4,195.7,342.6,190.8z M342.9,208L342.9,208"/>
	</g>
	<g id="XMLID_37_">
		<path id="XMLID_38_" class="st0" d="M372.3,220.5c-4.8-4.8-12.5-5-17.1-0.4c-4.6,4.6-4.5,12.3,0.4,17.1c4.8,4.8,12.5,5,17.1,0.3
			C377.3,233,377.1,225.4,372.3,220.5z M372.6,237.7L372.6,237.7"/>
	</g>
	<g id="XMLID_33_">
		<path id="XMLID_34_" class="st0" d="M372.7,295.7c4.7-4.7,4.8-12.3,0.2-17c-4.6-4.6-12.2-4.5-17,0.2c-4.7,4.7-4.8,12.3-0.2,17
			C360.3,300.5,367.9,300.4,372.7,295.7z M355.7,295.8L355.7,295.8"/>
	</g>
	<g id="XMLID_29_">
		<path id="XMLID_30_" class="st0" d="M343.5,324.8c4.7-4.7,4.8-12.3,0.2-17c-4.6-4.6-12.2-4.5-17,0.2c-4.7,4.7-4.8,12.3-0.2,17
			C331.2,329.6,338.8,329.6,343.5,324.8z M326.6,325L326.6,325"/>
	</g>
	<g id="XMLID_25_">
		<path id="XMLID_26_" class="st0" d="M314.4,354c4.7-4.7,4.8-12.3,0.2-17c-4.6-4.6-12.2-4.5-17,0.2c-4.7,4.7-4.8,12.3-0.2,17
			C302,358.8,309.6,358.7,314.4,354z M297.4,354.2L297.4,354.2"/>
	</g>
	<g id="XMLID_21_">
		<path id="XMLID_22_" class="st0" d="M285.2,383.2c4.7-4.7,4.8-12.3,0.2-17c-4.6-4.6-12.2-4.5-17,0.2c-4.7,4.7-4.8,12.3-0.2,17
			C272.9,388,280.5,387.9,285.2,383.2z M268.2,383.3L268.2,383.3"/>
	</g>
	<g id="XMLID_17_">
		<path id="XMLID_18_" class="st0" d="M256,412.3c4.7-4.7,4.8-12.3,0.2-17c-4.6-4.6-12.2-4.5-17,0.2c-4.7,4.7-4.8,12.3-0.2,17
			C243.7,417.1,251.3,417,256,412.3z M239.1,412.5L239.1,412.5"/>
	</g>
	<g id="XMLID_13_">
		<path id="XMLID_14_" class="st0" d="M226.9,441.5c4.7-4.7,4.8-12.3,0.2-17c-4.6-4.6-12.2-4.5-17,0.2c-4.7,4.7-4.8,12.3-0.2,17
			C214.5,446.3,222.1,446.2,226.9,441.5z M209.9,441.7L209.9,441.7"/>
	</g>
	<g id="XMLID_9_">
		<path id="XMLID_10_" class="st0" d="M197.7,470.6c4.7-4.7,4.8-12.3,0.2-17c-4.6-4.6-12.2-4.5-17,0.2c-4.7,4.7-4.8,12.3-0.2,17
			C185.4,475.5,193,475.4,197.7,470.6z M180.7,470.8L180.7,470.8"/>
	</g>
	<g id="XMLID_4_">
		<path id="XMLID_5_" class="st0" d="M168.5,499.8c4.7-4.7,4.8-12.3,0.2-17c-4.6-4.6-12.2-4.5-17,0.2c-4.7,4.7-4.8,12.3-0.2,17
			C156.2,504.6,163.8,504.5,168.5,499.8z M151.6,500L151.6,500"/>
	</g>
</g>
</svg>
