<?xml version="1.0" encoding="utf-8"?>
<!-- Generator: Adobe Illustrator 19.0.0, SVG Export Plug-In . SVG Version: 6.00 Build 0)  -->
<svg version="1.1" id="Layer_1" xmlns="http://www.w3.org/2000/svg" xmlns:xlink="http://www.w3.org/1999/xlink" x="0px" y="0px"
	 viewBox="0 0 512 512" style="enable-background:new 0 0 512 512;" xml:space="preserve">
<style type="text/css">
	.st0{fill:#FFFFFF;}
</style>
<g id="XMLID_2_">
	<g id="XMLID_65_">
		<path id="XMLID_66_" class="st0" d="M355.4,29.7c4.6,4.6,12.3,4.5,17.1-0.3c4.8-4.8,5-12.5,0.4-17.1c-4.6-4.6-12.3-4.5-17.1,0.4
			C351,17.4,350.8,25.1,355.4,29.7z M355.4,29.7L355.4,29.7"/>
	</g>
	<g id="XMLID_61_">
		<path id="XMLID_62_" class="st0" d="M325.7,59.4c4.6,4.6,12.3,4.5,17.1-0.3c4.8-4.8,5-12.5,0.4-17.1c-4.6-4.6-12.3-4.5-17.1,0.4
			C321.3,47.1,321.1,54.8,325.7,59.4z M325.7,59.4L325.7,59.4"/>
	</g>
	<g id="XMLID_57_">
		<path id="XMLID_58_" class="st0" d="M296,89.1c4.6,4.6,12.3,4.5,17.1-0.3c4.8-4.8,5-12.5,0.4-17.1c-4.6-4.6-12.3-4.5-17.1,0.4
			C291.5,76.8,291.4,84.5,296,89.1z M296,89.1L296,89.1"/>
	</g>
	<g id="XMLID_53_">
		<path id="XMLID_54_" class="st0" d="M266.3,118.8c4.6,4.6,12.3,4.5,17.1-0.3c4.8-4.8,5-12.5,0.4-17.1c-4.6-4.6-12.3-4.5-17.1,0.4
			C261.8,106.5,261.7,114.2,266.3,118.8z M266.3,118.8L266.3,118.8"/>
	</g>
	<g id="XMLID_49_">
		<path id="XMLID_50_" class="st0" d="M236.6,148.5c4.6,4.6,12.3,4.5,17.1-0.3c4.8-4.8,5-12.5,0.4-17.1c-4.6-4.6-12.3-4.5-17.1,0.4
			C232.1,136.2,232,143.9,236.6,148.5z M236.6,148.5L236.6,148.5"/>
	</g>
	<g id="XMLID_45_">
		<path id="XMLID_46_" class="st0" d="M206.9,178.3c4.6,4.6,12.3,4.5,17.1-0.3c4.8-4.8,5-12.5,0.4-17.1c-4.6-4.6-12.3-4.5-17.1,0.4
			C202.4,166,202.3,173.6,206.9,178.3z M206.9,178.3L206.9,178.3"/>
	</g>
	<g id="XMLID_41_">
		<path id="XMLID_42_" class="st0" d="M177.2,208c4.6,4.6,12.3,4.5,17.1-0.3c4.8-4.8,5-12.5,0.4-17.1c-4.6-4.6-12.3-4.5-17.1,0.4
			C172.7,195.7,172.5,203.3,177.2,208z M177.2,208L177.2,208"/>
	</g>
	<g id="XMLID_37_">
		<path id="XMLID_38_" class="st0" d="M147.5,237.7c4.6,4.6,12.3,4.5,17.1-0.3c4.8-4.8,5-12.5,0.4-17.1c-4.6-4.6-12.3-4.5-17.1,0.4
			C143,225.4,142.8,233,147.5,237.7z M147.5,237.7L147.5,237.7"/>
	</g>
	<g id="XMLID_33_">
		<path id="XMLID_34_" class="st0" d="M164.4,295.8c4.6-4.6,4.5-12.2-0.2-17c-4.7-4.7-12.3-4.8-17-0.2c-4.6,4.6-4.5,12.2,0.2,17
			C152.2,300.4,159.8,300.5,164.4,295.8z M164.4,295.8L164.4,295.8"/>
	</g>
	<g id="XMLID_29_">
		<path id="XMLID_30_" class="st0" d="M193.6,325c4.6-4.6,4.5-12.2-0.2-17c-4.7-4.7-12.3-4.8-17-0.2c-4.6,4.6-4.5,12.2,0.2,17
			C181.3,329.6,188.9,329.6,193.6,325z M193.6,325L193.6,325"/>
	</g>
	<g id="XMLID_25_">
		<path id="XMLID_26_" class="st0" d="M222.7,354.2c4.6-4.6,4.5-12.2-0.2-17c-4.7-4.7-12.3-4.8-17-0.2c-4.6,4.6-4.5,12.2,0.2,17
			C210.5,358.7,218.1,358.8,222.7,354.2z M222.7,354.2L222.7,354.2"/>
	</g>
	<g id="XMLID_21_">
		<path id="XMLID_22_" class="st0" d="M251.9,383.3c4.6-4.6,4.5-12.2-0.2-17c-4.7-4.7-12.3-4.8-17-0.2c-4.6,4.6-4.5,12.2,0.2,17
			C239.7,387.9,247.3,388,251.9,383.3z M251.9,383.3L251.9,383.3"/>
	</g>
	<g id="XMLID_17_">
		<path id="XMLID_18_" class="st0" d="M281.1,412.5c4.6-4.6,4.5-12.2-0.2-17c-4.7-4.7-12.3-4.8-17-0.2c-4.6,4.6-4.5,12.2,0.2,17
			C268.8,417,276.4,417.1,281.1,412.5z M281.1,412.5L281.1,412.5"/>
	</g>
	<g id="XMLID_13_">
		<path id="XMLID_14_" class="st0" d="M310.2,441.7c4.6-4.6,4.5-12.2-0.2-17c-4.7-4.7-12.3-4.8-17-0.2c-4.6,4.6-4.5,12.2,0.2,17
			C298,446.2,305.6,446.3,310.2,441.7z M310.2,441.7L310.2,441.7"/>
	</g>
	<g id="XMLID_9_">
		<path id="XMLID_10_" class="st0" d="M339.4,470.8c4.6-4.6,4.5-12.2-0.2-17c-4.7-4.7-12.3-4.8-17-0.2c-4.6,4.6-4.5,12.2,0.2,17
			C327.2,475.4,334.7,475.5,339.4,470.8z M339.4,470.8L339.4,470.8"/>
	</g>
	<g id="XMLID_4_">
		<path id="XMLID_5_" class="st0" d="M368.5,500c4.6-4.6,4.5-12.2-0.2-17c-4.7-4.7-12.3-4.8-17-0.2c-4.6,4.6-4.5,12.2,0.2,17
			C356.3,504.5,363.9,504.6,368.5,500z M368.5,500L368.5,500"/>
	</g>
</g>
</svg>
