<?xml version="1.0" encoding="utf-8"?>
<!-- Generator: Adobe Illustrator 19.0.0, SVG Export Plug-In . SVG Version: 6.00 Build 0)  -->
<svg version="1.1" id="Layer_1" xmlns="http://www.w3.org/2000/svg" xmlns:xlink="http://www.w3.org/1999/xlink" x="0px" y="0px"
	 viewBox="0 0 512 512" style="enable-background:new 0 0 512 512;" xml:space="preserve">
<style type="text/css">
	.st0{clip-path:url(#XMLID_3_);}
	.st1{clip-path:url(#XMLID_4_);}
</style>
<g id="XMLID_2_">
	<g id="XMLID_87_">
		<g id="XMLID_91_">
			<g id="XMLID_162_">
				<path id="XMLID_163_" d="M156.6,29.7c4.6-4.6,4.5-12.3-0.3-17.1c-4.8-4.8-12.5-5-17.1-0.4c-4.6,4.6-4.5,12.3,0.4,17.1
					C144.3,34.2,151.9,34.3,156.6,29.7z M156.6,29.7L156.6,29.7"/>
			</g>
			<g id="XMLID_158_">
				<path id="XMLID_159_" d="M186.3,59.4c4.6-4.6,4.5-12.3-0.3-17.1c-4.8-4.8-12.5-5-17.1-0.4c-4.6,4.6-4.5,12.3,0.4,17.1
					C174,63.9,181.6,64.1,186.3,59.4z M186.3,59.4L186.3,59.4"/>
			</g>
			<g id="XMLID_154_">
				<path id="XMLID_155_" d="M216,89.1c4.6-4.6,4.5-12.3-0.3-17.1c-4.8-4.8-12.5-5-17.1-0.4c-4.6,4.6-4.5,12.3,0.4,17.1
					C203.7,93.6,211.3,93.8,216,89.1z M216,89.1L216,89.1"/>
			</g>
			<g id="XMLID_150_">
				<path id="XMLID_151_" d="M245.7,118.8c4.6-4.6,4.5-12.3-0.3-17.1c-4.8-4.8-12.5-5-17.1-0.4c-4.6,4.6-4.5,12.3,0.4,17.1
					C233.4,123.3,241.1,123.5,245.7,118.8z M245.7,118.8L245.7,118.8"/>
			</g>
			<g id="XMLID_146_">
				<path id="XMLID_147_" d="M275.4,148.5c4.6-4.6,4.5-12.3-0.3-17.1c-4.8-4.8-12.5-5-17.1-0.4c-4.6,4.6-4.5,12.3,0.4,17.1
					C263.1,153,270.8,153.2,275.4,148.5z M275.4,148.5L275.4,148.5"/>
			</g>
			<g id="XMLID_142_">
				<path id="XMLID_143_" d="M305.1,178.3c4.6-4.6,4.5-12.3-0.3-17.1c-4.8-4.8-12.5-5-17.1-0.4c-4.6,4.6-4.5,12.3,0.4,17.1
					C292.8,182.7,300.5,182.9,305.1,178.3z M305.1,178.3L305.1,178.3"/>
			</g>
			<g id="XMLID_138_">
				<path id="XMLID_139_" d="M334.8,208c4.6-4.6,4.5-12.3-0.3-17.1c-4.8-4.8-12.5-5-17.1-0.4c-4.6,4.6-4.5,12.3,0.4,17.1
					C322.5,212.4,330.2,212.6,334.8,208z M334.8,208L334.8,208"/>
			</g>
			<g id="XMLID_134_">
				<path id="XMLID_135_" d="M364.5,237.7c4.6-4.6,4.5-12.3-0.3-17.1c-4.8-4.8-12.5-5-17.1-0.4c-4.6,4.6-4.5,12.3,0.4,17.1
					C352.2,242.1,359.9,242.3,364.5,237.7z M364.5,237.7L364.5,237.7"/>
			</g>
			<g id="XMLID_130_">
				<path id="XMLID_131_" d="M347.6,295.8c4.6,4.6,12.2,4.5,17-0.2c4.7-4.7,4.8-12.3,0.2-17c-4.6-4.6-12.2-4.5-17,0.2
					C343,283.6,343,291.2,347.6,295.8z M347.6,295.8L347.6,295.8"/>
			</g>
			<g id="XMLID_126_">
				<path id="XMLID_127_" d="M318.4,325c4.6,4.6,12.2,4.5,17-0.2c4.7-4.7,4.8-12.3,0.2-17c-4.6-4.6-12.2-4.5-17,0.2
					C313.9,312.8,313.8,320.4,318.4,325z M318.4,325L318.4,325"/>
			</g>
			<g id="XMLID_122_">
				<path id="XMLID_123_" d="M289.3,354.2c4.6,4.6,12.2,4.5,17-0.2c4.7-4.7,4.8-12.3,0.2-17c-4.6-4.6-12.2-4.5-17,0.2
					C284.7,341.9,284.6,349.5,289.3,354.2z M289.3,354.2L289.3,354.2"/>
			</g>
			<g id="XMLID_118_">
				<path id="XMLID_119_" d="M260.1,383.3c4.6,4.6,12.2,4.5,17-0.2c4.7-4.7,4.8-12.3,0.2-17c-4.6-4.6-12.2-4.5-17,0.2
					C255.6,371.1,255.5,378.7,260.1,383.3z M260.1,383.3L260.1,383.3"/>
			</g>
			<g id="XMLID_114_">
				<path id="XMLID_115_" d="M230.9,412.5c4.6,4.6,12.2,4.5,17-0.2c4.7-4.7,4.8-12.3,0.2-17c-4.6-4.6-12.2-4.5-17,0.2
					C226.4,400.3,226.3,407.9,230.9,412.5z M230.9,412.5L230.9,412.5"/>
			</g>
			<g id="XMLID_110_">
				<path id="XMLID_111_" d="M201.8,441.7c4.6,4.6,12.2,4.5,17-0.2c4.7-4.7,4.8-12.3,0.2-17c-4.6-4.6-12.2-4.5-17,0.2
					C197.2,429.4,197.1,437,201.8,441.7z M201.8,441.7L201.8,441.7"/>
			</g>
			<g id="XMLID_106_">
				<path id="XMLID_107_" d="M172.6,470.8c4.6,4.6,12.2,4.5,17-0.2c4.7-4.7,4.8-12.3,0.2-17c-4.6-4.6-12.2-4.5-17,0.2
					C168.1,458.6,168,466.2,172.6,470.8z M172.6,470.8L172.6,470.8"/>
			</g>
			<g id="XMLID_102_">
				<path id="XMLID_103_" d="M143.5,500c4.6,4.6,12.2,4.5,17-0.2c4.7-4.7,4.8-12.3,0.2-17c-4.6-4.6-12.2-4.5-17,0.2
					C138.9,487.8,138.8,495.4,143.5,500z M143.5,500L143.5,500"/>
			</g>
			<g id="XMLID_97_">
				<defs>
					<polygon id="XMLID_98_" points="368.4,258.3 368.4,258.3 401.9,258.3 385.1,241.5 					"/>
				</defs>
				<clipPath id="XMLID_3_">
					<use xlink:href="#XMLID_98_"  style="overflow:visible;"/>
				</clipPath>
				<path id="XMLID_99_" class="st0" d="M393.5,266.7c4.6-4.6,4.6-12.1,0-16.8c-4.6-4.6-12.1-4.6-16.8,0c-4.6,4.6-4.6,12.1,0,16.8
					C381.4,271.3,388.9,271.3,393.5,266.7z M393.5,266.7L393.5,266.7"/>
			</g>
			<g id="XMLID_92_">
				<defs>
					<polygon id="XMLID_93_" points="368.4,258.3 368.4,258.3 401.9,258.3 385.1,275.1 					"/>
				</defs>
				<clipPath id="XMLID_4_">
					<use xlink:href="#XMLID_93_"  style="overflow:visible;"/>
				</clipPath>
				<path id="XMLID_94_" class="st1" d="M376.8,266.7c4.6,4.6,12.1,4.6,16.8,0c4.6-4.6,4.6-12.1,0-16.8c-4.6-4.6-12.1-4.6-16.8,0
					C372.1,254.5,372.1,262.1,376.8,266.7z M376.8,266.7L376.8,266.7"/>
			</g>
		</g>
	</g>
</g>
</svg>
