<?xml version="1.0" standalone="no"?>
<!DOCTYPE svg PUBLIC "-//W3C//DTD SVG 20010904//EN"
 "http://www.w3.org/TR/2001/REC-SVG-20010904/DTD/svg10.dtd">
<svg version="1.0" xmlns="http://www.w3.org/2000/svg"
 width="1596.000000pt" height="927.000000pt" viewBox="0 0 1596.000000 927.000000"
 preserveAspectRatio="xMidYMid meet">

<g transform="translate(0.000000,927.000000) scale(0.100000,-0.100000)"
fill="#000000" stroke="none">
<path d="M2076 9212 c25 -63 87 -352 82 -384 -2 -15 -25 -28 -88 -53 -326
-126 -639 -310 -907 -532 -54 -45 -161 -146 -239 -225 -251 -256 -422 -494
-580 -809 -177 -353 -283 -722 -325 -1124 -16 -162 -14 -514 6 -680 85 -735
403 -1393 925 -1915 353 -353 794 -625 1263 -780 54 -17 103 -30 110 -27 7 3
18 24 25 48 21 69 137 304 204 414 34 55 130 206 213 335 408 632 522 871 556
1166 13 114 6 294 -16 434 -17 101 -61 280 -73 292 -4 4 -5 -38 -4 -94 13
-361 -186 -874 -538 -1392 -51 -75 -93 -136 -94 -136 0 0 -2 96 -3 213 -1 155
-6 240 -20 317 l-18 105 146 300 c469 959 560 1305 483 1824 -28 192 -89 404
-183 645 -20 50 -23 21 -4 -45 25 -91 25 -419 0 -574 -71 -429 -193 -809 -399
-1237 -50 -103 -92 -187 -94 -185 -1 1 15 83 37 182 139 636 219 1085 266
1500 25 230 25 706 0 860 -37 216 -117 488 -209 705 -46 107 -151 320 -197
398 l-30 51 37 10 c543 146 1127 142 1669 -10 361 -102 736 -287 1037 -513
362 -272 665 -622 886 -1023 59 -108 62 -111 86 -101 13 6 24 16 24 22 0 20
-119 228 -205 356 -469 706 -1199 1200 -2025 1370 -234 48 -388 63 -650 63
-301 1 -501 -22 -783 -89 -60 -14 -109 -24 -111 -23 -1 2 -29 45 -60 94 -86
133 -208 305 -216 305 -4 0 3 -26 16 -58z m122 -669 c47 -421 68 -803 58
-1050 -6 -163 -53 -606 -100 -953 -33 -244 -89 -580 -96 -580 -10 0 -194 526
-246 704 -127 436 -209 1054 -186 1409 4 64 4 117 1 117 -9 0 -75 -146 -115
-255 -138 -370 -201 -779 -175 -1139 25 -331 100 -594 338 -1173 69 -169 145
-355 168 -412 l41 -104 -41 -208 c-22 -114 -43 -210 -46 -214 -6 -6 -234 335
-353 528 -121 197 -205 368 -293 597 -79 209 -118 361 -154 599 -10 74 -21
136 -23 139 -6 5 -11 -14 -40 -143 -94 -411 -86 -736 25 -1098 62 -202 183
-406 472 -799 90 -123 197 -273 239 -334 l75 -112 7 -108 c10 -163 34 -332 67
-489 29 -134 135 -470 178 -565 11 -24 18 -46 16 -48 -2 -2 -69 28 -149 66
-1006 486 -1678 1444 -1786 2547 -17 169 -15 483 5 650 69 600 294 1144 673
1625 99 125 371 396 501 499 151 120 346 246 511 330 150 77 363 170 391 171
13 0 19 -33 37 -197z"/>
<path d="M9050 5908 c-41 -5 -124 -25 -183 -45 -272 -90 -494 -286 -666 -588
l-51 -89 0 332 0 332 -105 0 -105 0 0 -1455 0 -1455 105 0 105 0 0 814 c0 779
1 820 20 921 58 300 196 563 399 765 182 180 345 258 564 268 l117 5 0 103 0
104 -62 -1 c-35 -1 -97 -6 -138 -11z"/>
<path d="M13715 5910 c-158 -18 -358 -81 -485 -152 -204 -115 -388 -298 -506
-505 l-44 -78 0 338 0 337 -100 0 -100 0 0 -1490 0 -1490 100 0 100 0 0 373 0
372 28 -51 c178 -321 475 -557 812 -644 123 -31 207 -41 356 -41 371 0 681
127 939 386 317 318 479 794 436 1280 -35 385 -171 703 -408 955 -194 206
-454 349 -723 396 -109 19 -302 25 -405 14z m364 -215 c321 -61 582 -244 763
-536 214 -344 266 -837 132 -1248 -168 -515 -588 -831 -1104 -831 -319 0 -596
121 -823 359 -185 195 -300 430 -349 716 -17 101 -19 146 -15 290 6 186 19
263 73 425 125 376 401 665 749 785 158 54 406 71 574 40z"/>
<path d="M10450 5883 c-94 -11 -288 -56 -395 -93 -117 -41 -375 -157 -375
-169 0 -7 69 -174 74 -178 1 -1 65 26 143 62 272 124 468 174 718 182 236 9
405 -22 570 -102 237 -115 378 -318 430 -619 13 -79 22 -396 11 -396 -2 0 -61
16 -131 35 -412 113 -862 142 -1199 79 -168 -32 -374 -114 -494 -196 -121 -83
-241 -225 -297 -351 -79 -179 -93 -443 -33 -635 98 -317 379 -540 768 -607
135 -23 372 -22 520 4 341 59 644 236 827 485 l43 58 0 -251 0 -251 106 0 105
0 -3 993 c-4 900 -6 1001 -22 1087 -23 123 -78 288 -122 369 -149 270 -418
440 -778 490 -72 10 -387 13 -466 4z m570 -1388 c198 -23 407 -71 556 -126
l56 -21 -4 -242 c-4 -240 -4 -241 -34 -328 -52 -145 -107 -230 -224 -349 -111
-111 -172 -156 -298 -219 -165 -82 -318 -119 -532 -127 -234 -8 -406 28 -569
120 -93 52 -205 162 -248 242 -58 111 -78 195 -77 335 1 106 5 137 27 205 32
97 71 161 145 239 134 139 334 231 588 270 122 19 457 20 614 1z"/>
<path d="M5357 5863 c-2 -5 -190 -581 -418 -1280 -228 -700 -416 -1273 -419
-1273 -3 0 -190 570 -416 1268 l-410 1267 -107 3 c-59 1 -107 0 -107 -3 0 -4
216 -661 480 -1460 264 -800 480 -1457 480 -1460 0 -3 37 -5 82 -3 l82 3 407
1259 c224 692 411 1271 415 1287 8 24 74 -172 425 -1259 l415 -1287 81 -3 81
-3 20 63 c12 35 228 691 481 1460 254 768 461 1399 461 1402 0 3 -46 6 -103 6
l-104 0 -414 -1270 c-227 -698 -416 -1270 -419 -1270 -3 0 -191 576 -419 1280
l-415 1280 -77 0 c-43 0 -80 -3 -82 -7z"/>
<path d="M15400 3423 c-63 -23 -151 -113 -173 -177 -10 -28 -17 -80 -17 -121
0 -122 68 -227 179 -279 72 -32 189 -30 263 7 111 55 172 152 172 277 0 128
-58 225 -166 279 -53 27 -72 31 -137 30 -42 0 -96 -8 -121 -16z m205 -40 c68
-23 137 -93 160 -162 34 -102 7 -207 -72 -283 -51 -50 -105 -71 -178 -71 -113
1 -218 79 -250 186 -19 65 -19 100 3 163 50 143 195 216 337 167z"/>
<path d="M15390 3140 l0 -160 35 0 35 0 0 55 c0 53 1 55 28 55 21 -1 35 -12
65 -55 35 -51 41 -55 77 -55 22 0 40 3 40 6 0 4 -16 29 -35 56 l-36 49 31 29
c24 22 30 36 30 70 0 85 -40 110 -180 110 l-90 0 0 -160z m170 87 c16 -8 25
-21 25 -37 0 -30 -35 -50 -87 -50 l-38 0 0 50 0 50 38 0 c20 0 48 -6 62 -13z"/>
<path d="M2860 2685 l0 -25 6550 0 6550 0 0 25 0 25 -6550 0 -6550 0 0 -25z"/>
<path d="M12480 2285 l0 -215 100 0 100 0 0 215 0 215 -100 0 -100 0 0 -215z"/>
<path d="M6039 1857 c-56 -37 -79 -81 -79 -149 0 -69 18 -118 51 -139 13 -9
68 -33 121 -53 53 -21 102 -44 108 -51 18 -22 23 -83 10 -115 -7 -17 -25 -37
-41 -45 -33 -18 -102 -20 -131 -4 -24 13 -48 67 -48 109 0 28 -2 30 -40 30
l-40 0 0 -47 c1 -67 29 -125 76 -154 32 -20 52 -24 114 -24 134 0 201 63 202
189 0 106 -22 133 -159 186 -111 43 -120 49 -134 82 -9 23 -9 38 0 69 30 100
191 81 191 -22 0 -28 2 -29 46 -29 l47 0 -7 46 c-13 101 -69 144 -184 144 -55
0 -76 -5 -103 -23z"/>
<path d="M6520 1858 c-55 -38 -74 -71 -78 -142 -7 -115 22 -147 188 -206 89
-31 114 -59 107 -123 -6 -68 -30 -89 -106 -95 -53 -4 -62 -2 -85 21 -17 17
-27 41 -32 76 l-7 51 -38 0 -39 0 0 -47 c0 -61 32 -127 75 -153 76 -47 210
-34 270 26 54 54 69 177 29 241 -17 28 -80 64 -164 93 -103 37 -129 70 -110
142 9 31 18 43 45 54 19 8 46 14 60 14 37 0 85 -48 88 -87 2 -32 4 -33 45 -33
41 0 42 1 42 33 -1 56 -34 113 -79 136 -58 30 -166 29 -211 -1z"/>
<path d="M8204 1861 c-75 -46 -104 -134 -104 -320 0 -204 39 -294 140 -321
136 -37 229 35 246 188 l7 62 -41 0 c-40 0 -41 -1 -47 -37 -10 -62 -35 -123
-55 -133 -58 -31 -126 4 -152 78 -17 49 -17 284 0 334 28 80 82 113 143 88 32
-14 52 -45 64 -97 6 -31 9 -33 47 -33 l41 0 -6 52 c-8 63 -43 119 -90 141 -49
24 -153 23 -193 -2z"/>
<path d="M8710 1869 c-99 -40 -144 -188 -122 -400 18 -172 68 -242 181 -256
103 -12 182 34 217 127 25 67 32 318 10 393 -19 65 -57 114 -103 133 -37 16
-146 17 -183 3z m136 -75 c22 -11 41 -31 56 -62 21 -42 23 -61 23 -182 0 -158
-17 -220 -65 -245 -41 -21 -102 -19 -133 5 -42 33 -52 80 -52 240 0 163 12
206 69 241 38 23 58 24 102 3z"/>
<path d="M11821 1863 c-75 -38 -111 -143 -111 -326 0 -216 51 -309 179 -324
126 -15 211 72 211 215 l0 42 -40 0 c-28 0 -40 -4 -40 -15 0 -43 -25 -121 -46
-142 -49 -49 -126 -21 -159 59 -25 60 -25 273 0 348 41 122 181 115 201 -11 6
-38 8 -39 45 -39 38 0 39 1 39 38 0 47 -36 119 -73 146 -39 29 -158 34 -206 9z"/>
<path d="M12985 1866 c-45 -19 -82 -69 -101 -133 -24 -83 -16 -340 12 -403 41
-91 123 -132 226 -116 105 17 152 88 168 253 20 212 -19 350 -112 399 -34 18
-153 18 -193 0z m141 -71 c26 -11 40 -27 57 -62 19 -42 22 -65 22 -183 0 -200
-29 -260 -123 -260 -97 0 -127 60 -127 255 0 154 17 214 69 246 37 23 56 24
102 4z"/>
<path d="M2962 1848 c3 -13 33 -157 68 -320 l64 -298 51 0 50 0 48 223 c26
122 47 230 47 240 0 9 3 17 8 17 4 0 27 -103 51 -228 24 -125 46 -233 49 -239
2 -8 23 -13 52 -13 38 0 50 4 54 18 2 9 34 145 71 302 36 157 68 293 71 303 5
16 0 18 -42 15 l-48 -3 -13 -60 c-72 -353 -92 -438 -96 -425 -3 8 -25 121 -49
250 l-43 235 -51 3 -51 3 -54 -262 c-30 -143 -55 -250 -57 -238 -4 30 -81 446
-89 477 -4 19 -12 22 -50 22 -42 0 -45 -2 -41 -22z"/>
<path d="M3710 1550 l0 -320 165 0 165 0 0 35 0 35 -125 0 -125 0 0 110 0 110
115 0 115 0 0 40 0 40 -115 0 -115 0 0 100 0 100 125 0 125 0 0 35 0 35 -165
0 -165 0 0 -320z"/>
<path d="M4150 1550 l0 -320 170 0 170 0 0 35 0 35 -130 0 -130 0 0 285 0 285
-40 0 -40 0 0 -320z"/>
<path d="M4590 1550 l0 -320 170 0 170 0 0 35 0 35 -130 0 -130 0 0 285 0 285
-40 0 -40 0 0 -320z"/>
<path d="M5010 1550 l0 -320 45 0 45 0 2 258 3 257 90 -257 90 -258 62 0 63 0
0 320 0 320 -40 0 -40 0 -1 -267 0 -268 -93 265 -93 265 -66 3 -67 3 0 -321z"/>
<path d="M5530 1550 l0 -320 170 0 170 0 0 35 0 35 -125 0 -125 0 0 110 0 110
115 0 115 0 0 40 0 40 -115 0 -115 0 0 100 0 100 120 0 120 0 0 35 0 35 -165
0 -165 0 0 -320z"/>
<path d="M7160 1551 l0 -321 45 0 45 0 0 135 0 135 80 0 c109 0 124 -14 134
-125 13 -149 11 -145 67 -145 49 0 58 7 38 27 -5 5 -15 57 -21 114 -11 113
-27 156 -61 168 -21 8 -21 8 5 25 56 37 77 154 40 226 -31 62 -68 75 -229 78
l-143 4 0 -321z m265 225 c34 -22 50 -77 35 -122 -18 -52 -59 -74 -142 -74
l-68 0 0 111 0 112 76 -6 c42 -3 86 -12 99 -21z"/>
<path d="M7680 1550 l0 -320 165 0 165 0 0 35 0 35 -125 0 -125 0 0 110 0 110
120 0 120 0 0 40 0 40 -120 0 -120 0 0 100 0 100 125 0 125 0 0 35 0 35 -165
0 -165 0 0 -320z"/>
<path d="M9070 1858 c0 -7 40 -150 88 -318 l88 -305 51 -3 c42 -2 52 0 57 15
33 112 176 612 176 617 0 3 -20 6 -45 6 -43 0 -45 -1 -54 -37 -5 -21 -35 -137
-66 -258 -30 -121 -59 -228 -63 -238 -5 -11 -31 80 -76 258 l-68 275 -44 0
c-29 0 -44 -4 -44 -12z"/>
<path d="M9600 1550 l0 -320 165 0 165 0 0 35 0 35 -125 0 -125 0 0 110 0 110
120 0 120 0 0 40 0 40 -120 0 -120 0 0 100 0 100 125 0 125 0 0 35 0 35 -165
0 -165 0 0 -320z"/>
<path d="M10050 1551 l0 -321 40 0 40 0 0 135 0 135 76 0 c119 0 132 -14 144
-156 4 -51 11 -98 15 -103 6 -11 95 -16 95 -5 0 3 -5 14 -11 25 -6 11 -15 64
-20 117 -11 109 -23 141 -58 158 l-23 12 21 12 c60 32 84 168 41 237 -34 56
-68 67 -222 71 l-138 4 0 -321z m256 224 c51 -33 56 -117 9 -164 -22 -23 -36
-26 -105 -29 l-80 -4 0 112 0 113 76 -6 c44 -3 86 -12 100 -22z"/>
<path d="M10490 1866 c0 -2 43 -92 95 -201 l95 -197 0 -119 0 -119 40 0 40 0
0 120 0 120 95 190 c52 104 95 194 95 200 0 5 -20 10 -43 10 l-44 0 -71 -152
-71 -152 -42 90 c-23 49 -54 117 -70 152 l-28 62 -46 0 c-25 0 -45 -2 -45 -4z"/>
<path d="M11302 1618 c-40 -139 -81 -283 -91 -320 l-20 -68 48 0 48 0 12 53
c6 30 16 70 22 90 l10 37 93 0 94 0 23 -87 24 -88 49 -3 c42 -3 47 -1 42 15
-3 10 -37 131 -76 268 -39 138 -77 274 -86 303 l-15 52 -52 0 -53 0 -72 -252z
m198 -135 c0 -2 -34 -3 -76 -3 -68 0 -76 2 -72 18 3 9 20 79 39 155 l34 139
37 -154 c20 -84 37 -154 38 -155z"/>
<path d="M12160 1835 l0 -35 80 0 80 0 0 -285 0 -285 45 0 45 0 0 285 0 285
80 0 80 0 0 35 0 35 -205 0 -205 0 0 -35z"/>
<path d="M12660 1550 l0 -320 45 0 45 0 0 320 0 320 -45 0 -45 0 0 -320z"/>
<path d="M13410 1550 l0 -320 40 0 40 0 2 263 3 262 91 -260 91 -260 66 -3 67
-3 0 321 0 320 -45 0 -45 0 -2 -260 -3 -259 -90 259 -90 260 -62 0 -63 0 0
-320z"/>
<path d="M14170 1550 l0 -320 40 0 40 0 0 129 0 128 101 10 c111 11 139 25
170 83 13 24 19 56 19 105 0 90 -21 132 -80 163 -39 19 -59 22 -167 22 l-123
0 0 -320z m250 222 c51 -38 50 -149 -2 -181 -13 -8 -56 -16 -95 -19 l-73 -5 0
118 0 118 72 -6 c47 -4 81 -13 98 -25z"/>
<path d="M14630 1550 l0 -320 170 0 170 0 0 35 0 35 -130 0 -130 0 0 285 0
285 -40 0 -40 0 0 -320z"/>
<path d="M15186 1853 c-3 -10 -41 -146 -86 -303 -45 -157 -83 -293 -86 -303
-5 -16 0 -18 42 -15 l48 3 21 85 21 85 95 3 95 3 23 -91 24 -90 47 0 47 0 -58
208 c-33 114 -73 258 -90 320 l-31 112 -54 0 c-41 0 -54 -4 -58 -17z m61 -371
c-38 -2 -72 -1 -75 2 -4 5 26 137 60 261 11 40 11 39 47 -110 l36 -150 -68 -3z"/>
<path d="M15540 1550 l0 -320 40 0 40 0 2 266 3 265 64 -183 c35 -101 77 -220
93 -265 l30 -83 64 0 64 0 0 320 0 320 -40 0 -40 0 -2 -270 -3 -270 -94 270
-94 270 -63 0 -64 0 0 -320z"/>
<path d="M3835 778 c-2 -7 -32 -143 -65 -303 -34 -159 -63 -298 -66 -308 -5
-16 0 -18 37 -15 l43 3 17 80 c9 44 22 106 29 138 l11 57 75 0 c67 0 78 -3
101 -26 21 -22 24 -31 19 -62 -4 -20 -10 -72 -13 -114 l-6 -78 46 0 c50 0 66
12 47 36 -10 11 -10 34 -1 102 15 122 15 129 -16 159 -19 20 -22 28 -12 32 36
11 86 77 99 129 22 95 -7 154 -87 173 -60 14 -253 11 -258 -3z m207 -68 c59
-17 74 -68 41 -137 -22 -47 -78 -72 -160 -73 -35 0 -63 3 -63 8 0 4 10 53 22
110 l21 102 51 0 c28 0 68 -5 88 -10z"/>
<path d="M6036 759 c-11 -54 -8 -59 28 -59 40 0 41 1 50 53 l7 37 -39 0 c-36
0 -40 -3 -46 -31z"/>
<path d="M7220 781 c0 -6 23 -92 52 -193 l51 -183 -23 -115 c-13 -63 -25 -121
-28 -127 -3 -9 8 -13 37 -13 46 0 42 -7 77 160 17 83 21 89 146 267 71 101
131 189 134 198 5 12 -2 15 -37 15 l-44 -1 -100 -149 c-56 -83 -103 -143 -106
-137 -4 7 -21 74 -40 150 l-33 137 -43 0 c-24 0 -43 -4 -43 -9z"/>
<path d="M9000 469 l0 -320 50 3 51 3 105 245 105 245 -3 -248 -3 -247 46 0
c40 0 47 3 59 27 29 63 270 606 270 609 0 2 -20 4 -44 4 l-43 0 -107 -252
-107 -253 6 253 7 252 -49 0 -49 0 -107 -252 -108 -253 7 253 7 252 -47 0 -46
0 0 -321z"/>
<path d="M10110 783 c0 -5 -29 -145 -65 -313 -36 -168 -65 -308 -65 -312 0 -5
17 -8 38 -8 l37 0 64 300 c34 165 65 309 68 320 5 18 0 20 -36 20 -22 0 -41
-3 -41 -7z"/>
<path d="M10295 778 c-10 -31 -125 -591 -125 -609 0 -15 7 -19 35 -19 28 0 36
4 40 23 22 94 125 592 125 603 0 18 -69 19 -75 2z"/>
<path d="M12165 778 c2 -7 27 -95 55 -195 l50 -182 -25 -116 c-14 -64 -25
-121 -25 -126 0 -5 18 -9 39 -9 l40 0 11 57 c39 193 32 178 176 382 74 104
134 193 134 196 0 3 -19 5 -43 5 l-43 0 -98 -145 c-55 -80 -102 -145 -106
-145 -3 0 -19 48 -34 108 -15 59 -32 124 -37 145 -9 36 -11 37 -54 37 -31 0
-43 -4 -40 -12z"/>
<path d="M13950 470 l0 -320 48 0 48 0 107 253 107 252 -7 -253 -6 -252 49 0
49 0 138 309 c75 170 137 314 137 320 0 8 -15 11 -42 9 l-41 -3 -60 -140 c-32
-77 -80 -192 -105 -255 l-47 -115 2 145 c2 80 4 196 6 258 l2 113 -48 -3 -49
-3 -70 -165 c-38 -91 -87 -206 -107 -257 l-38 -92 3 72 c2 40 5 156 7 260 l4
187 -43 0 -44 0 0 -320z"/>
<path d="M4362 623 c-63 -31 -113 -120 -138 -246 -29 -150 -1 -224 88 -234 88
-10 170 53 193 150 7 26 5 27 -28 27 -32 0 -37 -4 -47 -35 -20 -60 -94 -97
-128 -63 -13 13 -16 76 -6 127 l7 31 112 0 113 0 11 63 c14 79 14 96 0 136
-20 57 -107 79 -177 44z m102 -84 c5 -14 6 -42 2 -62 l-7 -37 -69 0 c-78 0
-80 2 -51 66 22 49 45 65 86 61 22 -1 32 -9 39 -28z"/>
<path d="M4785 620 c-47 -24 -45 -24 -45 -5 0 10 -11 15 -35 15 -28 0 -36 -4
-40 -22 -11 -49 -95 -449 -95 -453 0 -3 17 -5 38 -5 l39 0 27 133 c15 72 34
155 42 184 17 63 60 103 109 103 59 0 60 -16 15 -224 -22 -102 -40 -188 -40
-191 0 -3 17 -5 38 -5 l39 0 43 205 c36 175 41 209 31 234 -22 53 -96 67 -166
31z"/>
<path d="M5160 629 c-93 -39 -167 -207 -158 -362 3 -57 8 -71 31 -95 24 -23
35 -27 86 -27 37 1 67 7 84 18 39 25 77 81 84 121 6 36 5 36 -29 36 -31 0 -36
-3 -42 -30 -14 -72 -98 -107 -132 -55 -12 19 -15 36 -9 71 11 77 6 74 125 74
70 0 111 4 116 11 4 6 9 50 12 98 4 81 3 89 -20 115 -19 23 -34 29 -74 32 -27
2 -60 -1 -74 -7z m80 -69 c11 -7 14 -24 13 -61 -1 -28 -4 -54 -6 -56 -3 -2
-36 -3 -75 -1 l-70 3 13 38 c25 72 80 106 125 77z"/>
<path d="M6304 616 c-38 -21 -41 -22 -37 -5 5 16 0 19 -33 19 l-39 0 -48 -228
c-26 -125 -47 -233 -47 -240 0 -9 12 -12 37 -10 l36 3 37 170 c20 94 41 180
48 192 24 43 103 68 130 41 18 -18 16 -37 -23 -215 -19 -90 -35 -169 -35 -178
0 -23 67 -21 74 3 17 54 76 358 76 391 0 77 -90 106 -176 57z"/>
<path d="M6670 621 c-74 -39 -129 -160 -138 -303 -6 -101 6 -142 49 -163 38
-20 77 -19 122 4 44 22 48 11 14 -40 -43 -64 -118 -75 -142 -21 -7 16 -18 22
-42 22 -30 0 -33 -3 -33 -29 0 -16 3 -37 6 -46 18 -45 135 -60 204 -25 77 39
96 85 155 362 25 117 47 221 49 231 3 14 -3 17 -35 17 -28 0 -39 -4 -39 -15 0
-20 -7 -19 -37 5 -32 25 -87 26 -133 1z m115 -71 c15 -17 17 -31 12 -92 -12
-149 -66 -248 -135 -248 -54 0 -68 45 -47 154 25 132 70 206 125 206 15 0 35
-9 45 -20z"/>
<path d="M7783 630 c-81 -25 -149 -157 -160 -310 -10 -134 38 -190 151 -176
104 12 168 95 201 260 20 98 12 158 -25 199 -22 25 -35 31 -81 33 -30 2 -68
-1 -86 -6z m116 -94 c26 -56 -18 -244 -71 -296 -36 -36 -85 -41 -113 -10 -38
42 4 251 63 313 22 23 34 27 67 25 33 -2 42 -8 54 -32z"/>
<path d="M9775 624 c-16 -8 -38 -23 -49 -32 -33 -30 -75 -128 -92 -215 -29
-150 -1 -224 88 -234 88 -10 170 53 194 150 6 28 6 28 -32 25 -33 -3 -39 -7
-46 -35 -15 -57 -92 -95 -126 -61 -13 13 -16 76 -6 127 l7 31 113 0 c63 0 114
3 114 6 0 3 5 36 11 74 14 89 0 144 -41 165 -37 19 -97 19 -135 -1z m99 -85
c5 -14 6 -42 2 -62 l-7 -37 -69 0 c-78 0 -80 2 -51 66 22 49 45 65 86 61 22
-1 32 -9 39 -28z"/>
<path d="M10565 620 c-47 -24 -45 -24 -45 -5 0 10 -11 15 -35 15 -28 0 -36 -4
-40 -22 -5 -21 -77 -365 -91 -430 -5 -27 -4 -28 33 -28 l39 0 37 178 c35 170
38 178 72 210 25 23 44 32 70 32 57 0 58 -15 14 -221 -21 -101 -39 -187 -39
-191 0 -5 17 -8 38 -8 l38 0 42 203 c36 168 41 207 32 233 -19 55 -94 70 -165
34z"/>
<path d="M10935 629 c-92 -53 -154 -194 -155 -347 0 -80 18 -117 66 -132 77
-26 165 13 204 90 31 60 27 80 -14 80 -29 0 -34 -4 -40 -30 -14 -72 -98 -107
-132 -55 -12 19 -15 36 -9 71 11 77 6 74 125 74 63 0 111 4 115 10 4 6 9 50
12 98 5 83 4 89 -19 116 -20 24 -34 30 -79 33 -30 2 -63 -2 -74 -8z m91 -89
c6 -14 9 -42 7 -62 l-5 -38 -74 0 c-41 0 -74 2 -74 5 0 17 34 83 53 103 29 31
77 27 93 -8z"/>
<path d="M11273 620 c-70 -36 -109 -127 -83 -190 12 -28 70 -64 138 -84 77
-24 30 -136 -57 -136 -46 0 -61 14 -61 57 0 31 -2 33 -35 33 -29 0 -36 -4 -41
-26 -11 -45 12 -100 50 -118 59 -28 159 -14 208 31 28 24 58 91 58 128 0 47
-26 74 -105 110 -40 18 -75 41 -78 50 -4 9 0 31 7 50 16 37 42 49 92 43 26 -3
29 -7 32 -41 3 -37 4 -38 40 -35 36 3 37 5 40 44 2 32 -2 48 -21 70 -33 38
-122 45 -184 14z"/>
<path d="M11643 619 c-69 -34 -109 -125 -83 -189 12 -28 70 -64 138 -84 77
-24 30 -136 -57 -136 -46 0 -61 14 -61 57 0 31 -2 33 -34 33 -36 0 -46 -12
-46 -55 0 -71 59 -111 148 -102 71 7 127 45 153 100 41 91 20 134 -86 182 -40
18 -75 41 -78 50 -4 9 0 31 7 50 16 37 42 49 92 43 26 -3 29 -7 32 -41 3 -37
4 -38 40 -35 32 3 37 7 40 32 6 47 -7 75 -41 96 -42 26 -110 26 -164 -1z"/>
<path d="M12712 619 c-88 -44 -137 -156 -137 -316 0 -97 1 -104 26 -129 50
-49 161 -42 222 15 82 75 136 306 92 391 -31 60 -124 78 -203 39z m123 -69
c15 -17 17 -31 12 -92 -12 -149 -66 -248 -135 -248 -64 0 -81 46 -57 161 19
94 48 163 78 184 30 21 80 19 102 -5z"/>
<path d="M14695 621 c-42 -21 -67 -55 -79 -103 -6 -26 -4 -28 28 -28 27 0 36
5 42 23 12 39 35 57 74 57 52 0 66 -20 51 -70 -11 -37 -15 -40 -106 -75 -64
-25 -103 -47 -120 -66 -47 -57 -58 -168 -18 -197 45 -32 115 -26 163 14 29 25
30 25 30 5 0 -22 31 -35 71 -29 18 2 25 10 27 31 2 19 -1 27 -12 27 -21 0 -21
-3 14 162 49 229 41 258 -68 265 -43 3 -67 -1 -97 -16z m81 -268 c-18 -98 -51
-143 -106 -143 -52 0 -63 48 -24 108 14 21 104 72 128 72 4 0 5 -17 2 -37z"/>
<path d="M5414 523 c3 -60 9 -168 12 -241 l7 -132 37 0 38 0 67 173 c37 94 72
179 77 187 6 9 7 -55 4 -173 l-6 -188 41 3 41 3 104 225 c57 124 104 231 104
238 0 9 -12 12 -37 10 l-37 -3 -73 -175 c-40 -96 -75 -179 -77 -185 -3 -5 -5
75 -3 178 l2 188 -39 -3 -39 -3 -73 -185 -73 -185 -1 188 0 187 -41 0 -42 0 7
-107z"/>
<path d="M6007 608 c-7 -28 -97 -450 -97 -455 0 -1 17 -3 38 -3 l38 0 48 228
c27 125 51 233 53 240 4 8 -7 12 -35 12 -33 0 -41 -4 -45 -22z"/>
<path d="M8116 613 c-18 -64 -76 -360 -76 -391 0 -55 27 -77 94 -77 38 0 60 6
85 24 33 24 33 24 26 2 -6 -19 -3 -21 34 -21 23 0 41 2 41 5 0 4 86 414 95
453 5 20 2 22 -34 22 -35 0 -40 -3 -45 -27 -39 -189 -68 -307 -81 -332 -31
-61 -127 -83 -133 -30 -2 14 13 99 33 190 19 90 35 172 35 182 0 13 -8 17 -34
17 -24 0 -36 -5 -40 -17z"/>
<path d="M8536 613 c-7 -24 -96 -444 -96 -455 0 -4 17 -8 38 -8 l37 0 33 157
c18 86 40 170 48 185 19 37 70 68 112 68 19 0 32 5 32 13 0 6 3 22 6 35 6 20
3 22 -33 22 -26 0 -53 -9 -75 -24 l-35 -23 5 23 c4 22 1 24 -31 24 -25 0 -37
-5 -41 -17z"/>
<path d="M13022 427 c-35 -167 -41 -208 -32 -233 23 -65 123 -72 186 -13 l21
20 -4 -25 c-5 -24 -3 -26 33 -26 l39 0 48 228 c26 125 47 233 47 240 0 9 -12
12 -37 10 l-37 -3 -32 -150 c-43 -205 -42 -201 -80 -235 -37 -32 -100 -42
-110 -17 -3 8 13 99 36 204 22 104 40 193 40 196 0 4 -17 7 -38 7 l-38 0 -42
-203z"/>
<path d="M13437 408 c-26 -123 -47 -231 -47 -240 0 -14 8 -18 35 -18 28 0 36
5 40 23 3 12 19 85 35 161 16 76 37 149 45 162 21 33 60 56 103 63 31 5 37 11
43 39 6 32 6 32 -31 32 -23 0 -51 -9 -75 -26 l-37 -25 6 25 c6 25 4 26 -32 26
l-38 0 -47 -222z"/>
<path d="M14970 612 c0 -10 9 -105 20 -212 26 -255 26 -258 -9 -300 -25 -30
-35 -35 -72 -35 -42 0 -44 -1 -47 -32 l-3 -33 48 0 c59 0 104 25 136 77 27 44
287 539 287 547 0 4 -18 6 -40 6 -39 0 -41 -2 -64 -52 -13 -29 -55 -116 -92
-193 l-69 -140 -6 120 c-3 66 -7 153 -8 193 l-1 72 -40 0 c-32 0 -40 -4 -40
-18z"/>
</g>
</svg>
