<?xml version="1.0" encoding="utf-8"?>
<!-- Generator: Adobe Illustrator 19.0.0, SVG Export Plug-In . SVG Version: 6.00 Build 0)  -->
<svg version="1.1" id="Layer_1" xmlns="http://www.w3.org/2000/svg" xmlns:xlink="http://www.w3.org/1999/xlink" x="0px" y="0px"
	 viewBox="0 0 512 512" enable-background="new 0 0 512 512" xml:space="preserve">
<g id="XMLID_1_">
	<g id="XMLID_5_">
		<path id="XMLID_6_" fill="#E98624" d="M234.3,121.1c-2.5-2-3.6-5.7-4.3-9c-6.5-31.7-4.3-86.6,27.8-104.9c1.8-1,3.7-1.9,5.7-1.9
			c3.6-0.1,6.7,2.4,8.7,5.4c3.7,5.7,3.7,13.6,0,19.3c-2.5,3.9-6.4,6.7-9.5,10.1c-7.6,8.4-10.1,20.3-9.9,31.6s3,22.4,4.5,33.6
			c0.4,3,0.7,6.1-0.5,8.9c-2.2,5.1-8.5,6.8-14,7.8c-2.2,0.4-4.5,0.8-6.6,0.1C235.6,122,234.9,121.6,234.3,121.1z"/>
	</g>
	<path id="XMLID_7_" fill="#E98624" d="M298.6,53.9c0,0,43.7-96.5,188.8-31.2c0,0-37.5,112.4-183.9,61.1c0,0,24.1-45.3,119.4-42.3
		C422.8,41.4,369.4,23.3,298.6,53.9z"/>
	<path id="XMLID_19_" fill="#E9BA1F" d="M461.5,227.5c-0.4-4.4-0.9-8.7-1.5-13.2c-3.8-28.2-11.7-58-33.2-76.6
		c-14.9-13-35.2-19-55-18.6c-19.8,0.5-39.1,7.1-56.4,16.7c-13.7,7.7-26.5,17.4-41.4,22.4c-14.2,4.7-29.8,4.7-44.1,0.2
		c-15.2-4.9-28.2-14.7-42.6-21.5c-33.7-15.7-75-12.2-106.4,7.3C46.3,166,29.5,210.2,25.6,249.4c-3.2,31.7,1.3,63.9,9.5,94.8
		c14.2,54.5,41.2,107.8,86.2,141.6c19.6,14.7,43.3,25.6,67.6,23.7c21.1-1.7,40.7-12.9,61.9-13.5c25.6-0.7,48,11.9,72.6,15.4
		c18.1,2.6,37.3-3.2,52.6-12.8c31.9-20,51.6-56.5,63.8-91C460.2,350,467.6,288.2,461.5,227.5z M166,262.1
		c-28.6,30.5-67.1,41-85.9,23.3c-29.9-28-15-71.7,10.6-97c23.6-23.2,65.5-39.4,93.1-13.6C202.5,192.5,194.6,231.5,166,262.1z"/>
</g>
</svg>
