<?xml version="1.0" encoding="utf-8"?>
<!-- Generator: Adobe Illustrator 19.0.0, SVG Export Plug-In . SVG Version: 6.00 Build 0)  -->
<svg version="1.1" id="Layer_1" xmlns="http://www.w3.org/2000/svg" xmlns:xlink="http://www.w3.org/1999/xlink" x="0px" y="0px"
	 viewBox="0 0 512 512" enable-background="new 0 0 512 512" xml:space="preserve">
<g id="XMLID_5_">
	<path id="XMLID_13_" fill="#E9B121" d="M397.3,101.3v56.1H114.7v-56.1c0-27,21.9-48.9,48.8-48.9h184.9
		C375.4,52.5,397.3,74.3,397.3,101.3z"/>
	<path id="XMLID_14_" fill="#E78924" d="M114.7,180.2h282.5v282.9c0,27-21.9,48.9-48.8,48.9H163.5c-26.9,0-48.8-21.9-48.8-48.9
		V180.2z"/>
	<path id="XMLID_12_" fill="#E78924" d="M309,19.3c0,4.9-1.8,9.5-4.9,12.9h-88.7c-3.1-3.4-4.9-8-4.9-12.9c0-5.3,2.1-10.1,5.6-13.6
		c3.5-3.5,8.4-5.6,13.7-5.6h59.9C300.4,0,309,8.6,309,19.3z"/>
	<polygon id="XMLID_6_" fill="#FFFFFF" points="286.7,226.8 201.5,334.7 244.1,334.7 210.4,444.7 314.4,324.8 269.9,318.9 	"/>
</g>
</svg>
