<?xml version="1.0" encoding="utf-8"?>
<!-- Generator: Adobe Illustrator 19.0.0, SVG Export Plug-In . SVG Version: 6.00 Build 0)  -->
<svg version="1.1" id="Layer_1" xmlns="http://www.w3.org/2000/svg" xmlns:xlink="http://www.w3.org/1999/xlink" x="0px" y="0px"
	 viewBox="0 0 512 512" enable-background="new 0 0 512 512" xml:space="preserve">
<g id="XMLID_8_">
	<path id="XMLID_5_" fill="#EBAE20" d="M254.6,94.6c36.1-10.1,74.4-15.5,111.8-15.8c28.5-0.2,58,2.7,84.3,14
		c5.2,2.2,16.8,6,19.1,11.4c1,2.4,0.8,6.3,1.2,8.9c4.4,33,8.7,66.1,13.1,99.1c5.9,44.3,11.7,88.7,17.6,133
		c2.2,16.9,4.5,33.9,6.7,50.8c0.7,5.6,1.5,11.1,2.2,16.7c0.3,2.2,1.9,6.9,1.2,9.1c-0.1,0.3,0.1,0.9,0.2,1.2
		c-38.9-0.9-77.8-1.5-116.7-1.9c-26.5-0.3-53.1-0.5-79.6-0.2c-8.4,0.1-16.8,0.2-25.2,0.8c-5.2,0.3-8.7-0.7-8.9,4.9
		c0,1.4,0.7,7.8-0.3,8.7c-0.4,0.4-3.1,0-3.7,0c-6.9,0-13.8,0-20.7,0c-6.2,0-13,0.9-19.1,0c-1.4-0.2-2,0.3-2.6-0.5c-1-1.3,0-7,0-8.8
		c-50.6,0.5-101.1,0.6-151.7,0c-25.5-0.3-51.5,0.3-76.9-2.6c-4.3-0.5-6.3,0.3-6.5-3.6c-0.3-5.9,1.7-12.7,2.5-18.5
		c8-58.9,16-117.8,24-176.6c4-29.2,7.9-58.3,11.9-87.5c1.3-9.3,2.5-18.6,3.8-27.9c0.3-2.3,0-9.5,1.5-11.4c0.5-0.7,2.9-1,3.7-1.2
		c4.3-1.3,8.7-2.5,13-3.6c15.4-4,31-7.5,46.7-10.2c39.5-6.9,83-11.2,122.1,0.4C238.1,86,246.7,89.6,254.6,94.6z"/>
	<path id="XMLID_6_" fill="#FFFFFF" d="M64.1,110.7L40.4,384.2c0,0,150.7-66.9,203.2-5.1V106.4C243.6,106.4,138.6,74.3,64.1,110.7z"
		/>
	<path id="XMLID_7_" fill="#FFFFFF" d="M449.3,110.7L473,384.2c0,0-150.7-66.9-203.2-5.1V106.4C269.8,106.4,374.8,74.3,449.3,110.7z
		"/>
	<rect id="XMLID_3_" x="142" y="144.5" fill="#E88C24" width="28.8" height="30.5"/>
	<rect id="XMLID_10_" x="87.8" y="186.9" fill="#E88C24" width="28.8" height="30.5"/>
	<rect id="XMLID_11_" x="138.6" y="186.9" fill="#E88C24" width="28.8" height="30.5"/>
	<rect id="XMLID_12_" x="190.2" y="186.9" fill="#E88C24" width="28.8" height="30.5"/>
	<rect id="XMLID_15_" x="87.3" y="225.5" fill="#E88C24" width="28.8" height="30.5"/>
	<rect id="XMLID_14_" x="138.2" y="225.5" fill="#E88C24" width="28.8" height="30.5"/>
	<rect id="XMLID_13_" x="189.8" y="225.5" fill="#E88C24" width="28.8" height="30.5"/>
	<rect id="XMLID_18_" x="87.3" y="272.1" fill="#E88C24" width="28.8" height="30.5"/>
	<rect id="XMLID_17_" x="138.2" y="272.1" fill="#E88C24" width="28.8" height="30.5"/>
	<rect id="XMLID_16_" x="189.8" y="272.1" fill="#E88C24" width="28.8" height="30.5"/>
	<rect id="XMLID_9_" x="190.2" y="144.5" fill="#E88C24" width="28.8" height="30.5"/>
</g>
</svg>
