<?xml version="1.0" encoding="utf-8"?>
<!-- Generator: Adobe Illustrator 19.0.0, SVG Export Plug-In . SVG Version: 6.00 Build 0)  -->
<svg version="1.1" id="Layer_1" xmlns="http://www.w3.org/2000/svg" xmlns:xlink="http://www.w3.org/1999/xlink" x="0px" y="0px"
	 viewBox="0 0 512 512" enable-background="new 0 0 512 512" xml:space="preserve">
<g id="XMLID_3_">
	<rect id="XMLID_4_" x="306.5" y="82.7" fill="#E8B620" width="188.1" height="34.8"/>
	<rect id="XMLID_18_" x="20.9" y="237.7" fill="#E8B620" width="188.1" height="34.8"/>
	<rect id="XMLID_19_" x="285.6" y="396.2" fill="#E8B620" width="215.9" height="34.8"/>
	<path id="XMLID_20_" fill="#E98824" d="M512,32.2H160.2c-18.3,0-34.8,7.4-46.8,19.4c-12,12-19.4,28.5-19.4,46.8
		c0,36.6,29.6,66.2,66.2,66.2H512v-24.4H310c-22.2,0-40.1-17.9-40.1-40.1c0-11.1,4.5-21.1,11.7-28.4c7.2-7.2,17.3-11.7,28.4-11.7
		h202V32.2z"/>
	<path id="XMLID_21_" fill="#E98824" d="M96.8,366.8c-12.5,12-20.2,28.5-20.2,46.8c0,36.6,30.9,66.2,69,66.2H512v-24.4H301.6
		c-23.1,0-41.7-17.9-41.7-40.1c0-11.1,4.7-21.1,12.2-28.4c7.6-7.2,18-11.7,29.5-11.7H512v-27.9H145.6
		C126.5,347.4,109.3,354.8,96.8,366.8z"/>
	<path id="XMLID_22_" fill="#E98824" d="M418,255.1c0-18.3-7.4-34.8-19.4-46.8c-12-12-28.5-19.4-46.8-19.4H0v27.9h202
		c11.1,0,21.1,4.5,28.4,11.7c7.2,7.2,11.7,17.3,11.7,28.4c0,22.2-17.9,40.1-40.1,40.1H0v24.4h351.8C388.4,321.3,418,291.7,418,255.1
		z"/>
</g>
</svg>
