<?xml version="1.0" encoding="utf-8"?>
<!-- Generator: Adobe Illustrator 19.0.0, SVG Export Plug-In . SVG Version: 6.00 Build 0)  -->
<svg version="1.1" id="Layer_1" xmlns="http://www.w3.org/2000/svg" xmlns:xlink="http://www.w3.org/1999/xlink" x="0px" y="0px"
	 viewBox="0 0 512 512" enable-background="new 0 0 512 512" xml:space="preserve">
<g id="XMLID_5_">
	<path id="XMLID_14_" fill="#EA8A35" d="M268.2,443.2H15.4c0,0-34.6-58.8,0-74.3s88.2-46.7,88.2-46.7s4.8-15.1-16-16.9
		c-20.7-1.8-35-18.2-37.6-26.4c0,0-3.3-145.2,90.1-145.2v-0.1h0.2c0.5,0,1-0.1,1.6,0c0.5-0.1,1,0,1.6,0h0.2v0.1
		c93.4,0,90.1,145.2,90.1,145.2c-2.6,8.2-16.9,24.6-37.6,26.4c-20.7,1.7-16,16.9-16,16.9s53.6,31.1,88.2,46.7
		S268.2,443.2,268.2,443.2z"/>
	<g id="XMLID_3_">
		<path id="XMLID_22_" fill="#E9B720" d="M388,68.8c-68.5,0-124.1,44.5-124.1,99.4c0,11.4,2.4,22.4,6.9,32.6
			c2.3,5.4,5.2,10.7,8.7,15.6c7.2,10.4,16.6,19.6,27.8,27.2c-2.1,16.4-16.5,29.9-35.8,34.4c9.2,7.4,21.9,12,36.1,12
			c21.7,0,40.2-10.8,47.4-26.1c10.5,2.3,21.6,3.6,33,3.6c68.5,0,124-44.5,124-99.4C512,113.3,456.5,68.8,388,68.8z M333.5,194.8
			c-10.3,0-18.7-8.4-18.7-18.7c0-10.3,8.4-18.7,18.7-18.7c10.3,0,18.7,8.4,18.7,18.7C352.1,186.3,343.8,194.8,333.5,194.8z
			 M387.9,194.8c-10.3,0-18.7-8.4-18.7-18.7c0-10.3,8.4-18.7,18.7-18.7c10.3,0,18.7,8.4,18.7,18.7
			C406.6,186.3,398.3,194.8,387.9,194.8z M445.9,194.8c-10.3,0-18.7-8.4-18.7-18.7c0-10.3,8.4-18.7,18.7-18.7
			c10.3,0,18.7,8.4,18.7,18.7C464.5,186.3,456.2,194.8,445.9,194.8z"/>
	</g>
</g>
</svg>
