<?xml version="1.0" encoding="utf-8"?>
<!-- Generator: Adobe Illustrator 19.0.0, SVG Export Plug-In . SVG Version: 6.00 Build 0)  -->
<svg version="1.1" id="Layer_1" xmlns="http://www.w3.org/2000/svg" xmlns:xlink="http://www.w3.org/1999/xlink" x="0px" y="0px"
	 viewBox="0 0 512 512" enable-background="new 0 0 512 512" xml:space="preserve">
<g id="XMLID_1_">
	<g id="XMLID_13_">
		<path id="XMLID_18_" fill="#E9B520" d="M511.9,60.1l-1-17.9H410.6V0H109.9v42.2H1l-0.9,18C0,61.5,0,63,0,64.4
			c0,84.6,59.7,157.8,145.9,192.1c19.5,24.8,45.7,43.2,75.6,51.8c0.8,3.8,1.2,7.8,1.2,11.8c0,25.7-16.9,47.3-40.3,54.5v2.5h147.1
			v-4.8c-20-8.8-34-28.9-34-52.1c0-3.8,0.4-7.6,1.1-11.2c33-8.8,61.7-29.6,82-57.8C458,214.9,512,144.8,512,64.4
			C512,62.9,512,61.5,511.9,60.1z M40.2,80h69.7v70.7c0,16.5,2.3,32.4,6.5,47.3C73.9,169.1,45.5,127.2,40.2,80z M217.1,258.6
			c-41-4.2-73.6-69.9-73.6-150.3c0-24.1,2.9-46.9,8.2-67.1h65.4V258.6z M406.1,190.5c2.9-12.7,4.5-26.1,4.5-39.8V80h61.2
			C467,123.2,442.7,161.9,406.1,190.5z"/>
	</g>
	<path id="XMLID_15_" fill="#E98724" d="M406.1,475v37H110.6v-37c0-9.1,7.4-16.4,16.4-16.4h0.5v-39.8c0-9.1,7.3-16.4,16.4-16.4
		h228.8c9.1,0,16.4,7.4,16.4,16.4v39.8h0.5C398.7,458.5,406.1,465.9,406.1,475z"/>
</g>
</svg>
