<?xml version="1.0" encoding="utf-8"?>
<!-- Generator: Adobe Illustrator 19.0.0, SVG Export Plug-In . SVG Version: 6.00 Build 0)  -->
<svg version="1.1" id="Layer_1" xmlns="http://www.w3.org/2000/svg" xmlns:xlink="http://www.w3.org/1999/xlink" x="0px" y="0px"
	 viewBox="0 0 512 512" enable-background="new 0 0 512 512" xml:space="preserve">
<g id="XMLID_5_">
	<path id="XMLID_16_" fill="#E98424" d="M427.8,383.9c-6.6,2.3-13.5,3.6-20.6,3.6c-42.5,0-78-44.4-86.6-103.6H116.8
		c-1.7,0-3.1-1.4-3.1-3.1v-58.9c0-1.7,1.4-3.1,3.1-3.1h205.4c10.8-54.5,44.8-94.3,85-94.3c5.2,0,10.3,0.7,15.2,1.9
		c5.5,1.4,6.4,8.8,1.4,11.5c-33.4,17.8-57.2,63.1-57.2,116.2c0,55.4,25.8,102.4,61.6,118.3C433.2,374.7,433,382,427.8,383.9z"/>
	<path id="XMLID_15_" fill="#E98424" d="M170.1,310.1L170.1,310.1c8.4,0,13.8,9,9.8,16.3c-16.9,31.4-44.1,51.7-74.8,51.7
		c-21.5,0-41.3-10-57-26.9c-3.3-3.5-8.3-4.6-12.9-3.1c-1.1,0.4-2.3,0.6-3.5,0.6C14.2,348.8,0,306.2,0,253.6
		c0-52.5,14.2-95.1,31.7-95.1c0.9,0,1.8,0.1,2.7,0.3c3.7,0.9,7.6-0.6,10.1-3.5c16.2-19.3,37.4-30.9,60.6-30.9
		c32.9,0,61.7,23.3,78.2,58.5c3.4,7.3-2,15.7-10.1,15.7h-3.1c-0.7,0-1.4,0.1-2.1,0.1c-9.2-27.5-25.1-45.7-43.1-45.7
		c-28.4,0-51.4,45-51.4,100.5c0,55.6,23,100.6,51.4,100.6c17.8,0,33.3-17.6,42.6-44.3C168.3,310.1,169.3,310.1,170.1,310.1z"/>
	<path id="XMLID_19_" fill="#E98424" d="M449.7,156.3c-34.3,0-62.2,43.4-62.2,97c0,53.6,27.9,97.1,62.2,97.1
		c34.4,0,62.3-43.4,62.3-97.1C512,199.7,484.1,156.3,449.7,156.3z M482.6,279.2c-7.7,0-13.9-12.4-13.9-27.8s6.2-27.8,13.9-27.8
		c7.7,0,14,12.4,14,27.8S490.3,279.2,482.6,279.2z"/>
</g>
</svg>
