<?xml version="1.0" encoding="utf-8"?>
<!-- Generator: Adobe Illustrator 19.0.0, SVG Export Plug-In . SVG Version: 6.00 Build 0)  -->
<svg version="1.1" id="Layer_1" xmlns="http://www.w3.org/2000/svg" xmlns:xlink="http://www.w3.org/1999/xlink" x="0px" y="0px"
	 viewBox="0 0 512 512" enable-background="new 0 0 512 512" xml:space="preserve">
<g id="XMLID_1_">
	<path id="XMLID_24_" fill="#E7BC20" d="M256,0C114.6,0,0,114.6,0,256s114.6,256,256,256C397.4,512,512,397.4,512,256S397.4,0,256,0
		z M182.8,269.1c-22.7,0-41.1-26.4-41.1-59c0-32.6,18.4-59,41.1-59s41.1,26.4,41.1,59C223.9,242.7,205.5,269.1,182.8,269.1z
		 M334.5,269.1c-22.7,0-41.1-26.4-41.1-59c0-32.6,18.4-59,41.1-59c22.7,0,41.1,26.4,41.1,59C375.6,242.7,357.2,269.1,334.5,269.1z"
		/>
	<path id="XMLID_14_" fill="#E98024" d="M204.9,216.4c0,17.6-9.9,31.8-22.1,31.8c-12.2,0-22.1-14.2-22.1-31.8
		c0-6.2,1.2-11.9,3.4-16.8c1,3.2,3.3,5.5,5.9,5.5c3.5,0,6.4-4.1,6.4-9.2c0-3.4-1.3-6.4-3.2-8c2.9-2.1,6.2-3.2,9.7-3.2
		C195,184.7,204.9,198.9,204.9,216.4z"/>
	<path id="XMLID_12_" fill="#E98024" d="M356.6,216.4c0,17.6-9.9,31.8-22.1,31.8s-22.1-14.2-22.1-31.8c0-5.8,1.1-11.3,3-15.9
		c1.1,2.7,3.2,4.6,5.5,4.6c3.5,0,6.4-4.1,6.4-9.2c0-3.2-1.1-6.1-2.9-7.6c3-2.3,6.4-3.5,10.1-3.5
		C346.7,184.7,356.6,198.9,356.6,216.4z"/>
	<path id="XMLID_17_" fill="#FFFFFF" d="M346.1,386.1c0,0.8,0,1.6-0.1,2.3c-20.7-13.3-53.6-21.9-90.5-21.9
		c-36.3,0-68.6,8.3-89.4,21.2c-0.1-0.6-0.1-1.1-0.1-1.6c0-30.6,40.3-55.3,90.1-55.3C305.8,330.8,346.1,355.5,346.1,386.1z"/>
</g>
</svg>
