<?xml version="1.0" encoding="utf-8"?>
<!-- Generator: Adobe Illustrator 19.0.0, SVG Export Plug-In . SVG Version: 6.00 Build 0)  -->
<svg version="1.1" id="Layer_1" xmlns="http://www.w3.org/2000/svg" xmlns:xlink="http://www.w3.org/1999/xlink" x="0px" y="0px"
	 viewBox="0 0 512 512" enable-background="new 0 0 512 512" xml:space="preserve">
<g id="XMLID_15_">
	<g id="XMLID_3_">
		<g id="XMLID_13_">
			<path id="XMLID_16_" fill="#EA8224" d="M286.4,352.1c-81.2,0-147.2-66-147.2-147.2s66-147.2,147.2-147.2s147.2,66,147.2,147.2
				S367.5,352.1,286.4,352.1z M286.4,69.4c-74.7,0-135.5,60.8-135.5,135.5c0,74.7,60.8,135.5,135.5,135.5
				c74.7,0,135.5-60.8,135.5-135.5C421.9,130.2,361.1,69.4,286.4,69.4z"/>
		</g>
		<g id="XMLID_20_">
			<path id="XMLID_12_" fill="#E98424" d="M220.5,318.3c0,0.1-0.1,0.1-0.1,0.1c0.2,0.1,0.4,0.1,0.6,0.2L220.5,318.3z"/>
			<path id="XMLID_11_" fill="#E98424" d="M212,127.4l-0.3-0.6c2.3-0.3,2.4-1.9,4.1-2.5c2-0.6,1.3,0.1,3.2,0
				c1.6-0.1,2.5,1.1,4.3,0.2c-0.4,0.8-1.1,1.3-1.8,1.8c-1.5,1-3,2.1-4.7,2.5C215.1,129.3,213,128.9,212,127.4z"/>
			<path id="XMLID_10_" fill="#E98424" d="M239.1,248.2c0,1.2-0.7,2.2-1.3,3.2c-2.7,4.4-4.4,9.6-4.7,14.8c-0.4,5-0.1,11.2-4.5,13.6
				c-2.5,1.4-6,1.1-7.6,3.5c-0.5,0.7-0.8,1.6-1,2.4c-1.1,3.9-2.1,7.8-3.2,11.7c-1.4-0.1-2.8-0.3-4.2-0.4c1.6,0.5,2.8,2.7,1.8,4.2
				c-1.6-0.8-3.6,0.2-4.5,1.7c-0.8,1.6-0.7,3.5-0.2,5.2c1.4,5.1,5.8,9.2,10.9,10.4c-0.9,1.7-3.6,0.9-5.3-0.2
				c-11.9-8-20.8-20.2-24.9-34c-1.4-4.8-2.4-10-5.2-14.2c-2.4-3.5-5.9-6.1-8.3-9.6c-3.3-5.1-3.9-11.6-7.8-16.2
				c-2.1-2.6-5.5-5.9-3.6-8.7c0.8-1.2,2.4-2.3,1.7-3.5c-0.2-0.4-0.6-0.6-1-1c-1.3-1.4-0.4-3.6,0.2-5.3c1.1-3.1,1.1-6.4,0.6-9.7
				c-3.2-2.9-5.8-6.5-7.4-10.5c-0.9-2.5-2.2-5.5-4.8-5.5c-0.7-1.9-1.4-3.8-2.1-5.7c-0.2,0.7-0.9,1.1-1.7,1.2c2-31,14.6-59.2,34-81
				c0.4-0.2,0.9-0.4,1.3-0.7c4.6-2.7,8.3-6.7,12.8-9.7c0.9-0.6,2-1.2,3.1-1.1c1.1,0.1,2.1,1.2,1.7,2.3c-0.2,0.4-0.5,0.8-0.9,1
				c-5.2,4.5-11,8.3-17.1,11.6c-0.7,0.4-1.5,0.8-1.8,1.5c-0.6,1.3,0.4,2.8,1.7,3.3c1.3,0.5,2.8,0.2,4.1-0.1
				c-1.1,1.6-1.5,3.8-0.9,5.7c1.3,0.1,1.7-1.6,2-2.8c1.5-4.7,9.1-6.7,8.6-11.7c2.1,1.1,4.1-1.3,5.4-3.3c1.3-2,4-4,5.6-2.2
				c0.1,1,0.2,2,0.3,2.9c2.7-0.7,5.4-1.4,8.1-2.1c-1.5,1.1-2.1,3.4-1.2,5c0.9,1.7,3.1,2.5,4.8,1.8c0,1.4-1.3,2.5-2.5,3.4
				c-3,2.2-6.2,4.5-9.6,5.6l0.8,1.7c-0.1,0-0.2,0.1-0.3,0.1c-2.2,0.2-4.5-1.4-6.9-1.1c-1.4,0.2-3.2,0.2-4,1.7
				c-0.1,0.2-0.6,2.8-0.3,2.5c1.3-0.7,2.6-1.5,3.8-2.2c0.4,1,0.5,2.2,0.3,3.3c1.6-0.2,3.2,0.2,4.6,1c-1.4,3.3-5.1,5.6-8.8,5.3
				c0-1.1-0.1-2.2-0.1-3.3c-3-0.2-5.5,2.3-7,4.9c-1.5,2.6-2.7,5.6-5.2,7.2c-1.5,1-3.4,1.4-5.1,2.3c-1.6,0.9-3.1,2.6-2.8,4.4
				c0.2,0.9,0.7,1.7,0.7,2.5c-0.1,1.7-2,2.4-3.3,3.5c-2.2,1.8-2.8,5.2-5.1,6.8c-1.7,1.2-4,1.2-6,1.8c-2,0.6-4,2.6-3.2,4.5
				c-1,0.3-2.2-0.4-2.3-1.4c-3.5,6.9-5.8,14.5-6.8,22.2c1.7,1.2,3.5-1.6,3.9-3.7c0.4-2.1,2.2-4.9,3.9-3.6c-0.4,3-0.8,6-1.2,9.1
				c-0.1,0.6-0.2,1.2,0.1,1.7c0.3,0.6,1.1,0.9,1.6,1.4c1.6,1.3,1.3,3.7,1.4,5.8c0.1,2.5,0.9,5,2.2,7.1c-0.1-0.4-0.2-0.9-0.3-1.3
				c2.4,0.3,4.9-0.5,6.7-2.1c0.9-0.9,1.7-2,2.9-2.4c1.2-0.5,2.6-0.1,3.8,0.2c3.9,1.1,8,2.3,10.6,5.3c1.3,1.6,2.1,3.5,3.7,4.8
				c3.6,3,9.6,1.7,12.8,5c2.6,2.7,2.1,7,1.4,10.8c-1.8-1-4.2,1.5-3.1,3.2c0.9-1,2.1-2.1,3.4-2.1c1.4,0,2.6,1.9,1.6,2.8
				c2.5-3.1,8.5-1.8,9.4,2.1c3.4,0.2,6.9,0.5,10.3,0.8C228.8,242.8,239.3,243.1,239.1,248.2z"/>
			<path id="XMLID_9_" fill="#E98424" d="M218.2,106.4c-1.3,0.7-3.1-0.1-3.6-1.5c-0.5-1.4,0.4-3.1,1.9-3.4c0.9-0.2,2.2-0.1,2.5-1
				c0.1-0.3,0-0.6,0-0.8c0-1.7,1.5-3.1,3.1-3.5c1.6-0.4,3.3-0.1,5,0.2c0.6,1.2,0.8,2.6,0.5,3.9c-1.1,0.1-2.3,0.1-3.4,0.1
				c0.1,1.9-0.1,4.2-1.8,4.9c-1.6,0.6-3.6-0.5-4.9,0.5"/>
			<path id="XMLID_8_" fill="#E98424" d="M235.8,87.7c3.1-1.5,5.7-3.8,8.7-5.4c5.2-2.7,11.3-2.9,17.2-3.1
				c13.4-0.4,26.7-0.8,40.1-1.2c-3.1,1.7-6.2,3.4-9.3,5.1c-2.5,1.4-5.4,2.8-8.2,2c-0.1,2.2,2,4.3,4.2,4.3
				c-5.5,3.4-13.1-0.1-18.9,2.8c-2.4,1.2-4.4,3.5-7.1,3.9c-1.5,0.2-3.1-0.2-4.7,0.2c-2.6,0.6-4.2,3-6.1,4.8
				c-2.2,2.1-5.4,3.5-8.3,2.5c-2.9-1-4.4-5.2-2.1-7.2c1.1-1,2.7-1.1,4.1-1.8c1.3-0.7,2.4-2.5,1.4-3.6c-0.4-0.5-1.1-0.7-1.5-1.2
				c-0.4-0.6-0.4-1.4-0.7-2c-1.4-2.4-5.1,0.8-7.7-0.1"/>
			<path id="XMLID_7_" fill="#E98424" d="M276.3,98.9c1.8-0.4,3.4-1.5,5.1-2.3c1.7-0.8,3.7-1.2,5.4-0.4c0.5,1.2-0.9,2.3-2.2,2.8
				c-2.4,0.8-5,1.1-7.5,0.7"/>
			<path id="XMLID_22_" fill="#E98424" d="M385.5,112.4c-0.5,0.1-1,0-1.5-0.1c-2.3-0.5-4-2.3-6-3.6c-4.5-3-10.7-3.4-15.6-0.9
				c1.2-1.7,1.7-3.8,1.6-5.8l-0.7,0.2c-8-4.7-17.4-9.5-26.2-6.4c-2,0.7-3.9,1.8-5.9,2.5c-2.2,0.8-4.6,1.1-6.5,2.4
				c-1.9,1.3-2.9,4.3-1.3,5.9c1.4,1.4,3.6,1,5.5,1.2c1.9,0.2,4.1,2.1,3,3.7c-8.4,3.9-16.8,7.9-25.2,11.8c3.9,1.3,6.4,5.6,5.6,9.6
				c-2.8,0.5-5.5-1.2-8.4-1.4c-4.1-0.2-8.1,3.4-8.2,7.6c-0.1,4.1,3.7,8,7.8,7.9c3.1,0,6.1-1.9,9.1-1.1c0.1-2.8,2.1-5.2,4-7.2
				c3.9-3.9,9.4-7.4,14.5-5.5c1.7,0.6,3.1,1.7,4.5,2.9c3.1,2.5,6.2,4.9,9.3,7.4c1-1,2-2,2.9-3c1.7,1.8,3.4,3.6,5.1,5.4
				c0.9-0.6,1.7-1.1,2.6-1.7c0.6,1.6,1.3,3.2,1.9,4.7c0.2-1.7,0.5-3.5,0.7-5.2c2,0.1,4.2,0.1,6-0.8c1.8-0.9,3.2-3.1,2.4-5
				c-0.4-1-1.3-1.8-1.5-2.9c-0.4-2.1,2.7-3.6,4.7-2.6c2,0.9,2.9,3.2,3.8,5.2c0.5-2.1,0.9-4.1,1.3-6.2c1.9,5,4.7,9.8,8.1,13.9
				c-6.3-1.2-12.9-0.5-18.8,1.9c1.9,2.6,5.1,4.2,8.3,4.1c1.4,0,3-0.4,4.1,0.6c0.8,0.7,1,1.8,1.2,2.9c0.5,2.9,1,5.9,1.4,8.8
				c-3.3-2.7-8.1-2.4-12.4-2.5c-4.3-0.1-9.4-1.3-11-5.3c-1.7,1.9-2.5,4.7-2,7.3c-4.5-1.1-9.6-2.8-10.9-7.2c-3.5,1.3-7.8-0.9-8.8-4.5
				c-0.3-1.3-0.4-2.8-1.5-3.5c-0.7-0.4-1.5-0.3-2.3-0.2c-6.6,0.8-13.3,1.5-19.9,2.3c-3.6,0.4-7.4,0.9-10.5,2.6
				c-3.2,1.7-5.7,5.2-5.4,8.8c-6.1,3.6-11.3,8.9-14.8,15c-1.1,1.9-2.1,4.1-1.6,6.2c0.3,1.7,1.4,3.1,1.7,4.7c0.6,2.8-1,5.5-1.7,8.2
				c-1.9,7.8,4.1,15.2,9.6,21.2c2.6,2.8,5.6,5.8,9.4,5.9c2.4,0.1,4.6-0.9,6.8-1.8c6.3-2.5,13.2-3.6,19.9-3.3c-1.5,1.2,0.1,3.8,2,4.2
				c1.9,0.4,4-0.2,5.8,0.4c4.2,1.5,3.6,7.7,1.7,11.7c0.9-0.2,1.9-0.4,2.9-0.6c-0.5,1.3-1,2.7-1.6,4c5.8,0.7,7.9,8.3,6.6,14
				c-1.3,5.7-4.7,10.9-4.8,16.7c0,3.2,0.9,6.3,1.9,9.3c2.5,7.7,4.9,15.4,7.4,23.1c6.9,0.8,10.8-7.9,17.2-10.6c2.4-1,5.2-1.3,7.1-3
				c1.8-1.7,1.2-5.7-1.1-5.7c3.2-0.3,5.9-3.2,5.9-6.4c0-0.9-0.1-1.8,0-2.7c0.2-1.3,1-2.4,1.8-3.4c4.9-7,8-15,11.2-22.9
				c0.8-2.1,1.7-4.2,2.5-6.3c3.1-7.9,6.2-15.7,9.3-23.6c1.2-3.1,2.5-6.2,3.7-9.3c-1.7,2.8-6.1,2.4-8.6,0.3c-2.5-2.1-3.9-5.2-5.9-7.8
				c-1.7-2.2-4-4.2-4.8-7c-0.5-1.6-0.4-3.2-0.6-4.9c-0.6-3.5-2.9-6.5-4.5-9.7s-2.4-7.3-0.2-10.1c6.4,11.2,12.3,22.8,17.6,34.7
				c0.6-1.8,1.9-3.4,3.6-4.3c1.3-0.7,2.7-0.9,4-1.5c3.5-1.5,5.9-5.2,5.9-9c0-3.8-2.5-7.5-6-9c-1.7-0.7-3.7-1-5.4-2
				c-1.7-1-2.8-3.2-1.8-4.8c1-1.5,3.3-1.5,5-0.6c1.6,0.9,2.8,2.4,4.4,3.4c1.1,0.7,2.4,1.2,3.6,1.9c6.5,3.7,8.1,12.1,9.4,19.5
				c0.7,4,1.6,7.9,2.6,11.7c0-0.8,0-1.7,0-2.5C421.8,169,408,136.6,385.5,112.4z M397.9,156.9c-0.9-0.1-1.7-0.6-2.4-1.2
				c-1.2-0.9-2.3-2-2.7-3.4c-0.4-1.7,0.4-3.7-0.5-5.2c-0.4-0.7-1.2-1.2-1.8-1.7c-1.7-1.3-2.9-3.3-3.4-5.4c-0.4-1.8,0.2-4.3,2.1-4.6
				c0.9-0.2,1.9,0.3,2.3,1.2l-1.3,0.7c2.1,0.2,3.1,3.4,1.5,4.8c-0.2,0.2-0.5,0.4-0.5,0.7c0,0.2,0.1,0.4,0.3,0.5c1.3,1.4,3.3,2,5,2.9
				c1.7,0.9,3.4,2.5,3.1,4.4c-0.6,0.2-1.1,0.4-1.6,0.6c-0.6,0.6-0.1,1.6,0.5,2.2c0.6,0.6,1.4,1.2,1.4,2
				C399.9,156.3,398.9,157,397.9,156.9z"/>
			<path id="XMLID_5_" fill="#E98424" d="M398.8,251.2l-2.2,1.6c0.8,2.7-0.8,5.9-3.4,7c-1.4,0.6-3.2,0.8-3.7,2.2
				c-0.4,1.2,0.5,2.4,0.7,3.7c0.2,2.1-1.7,3.6-3.2,5.2c-1.4,1.6-2.2,4.5-0.3,5.4c0.4,0.2,0.9,0.3,1.4,0.3c2,0.2,4.3,0.2,5.9-0.9
				c4.8-3.4,0.2-12.6,4.9-16.1c0.7-0.5,1.5-0.8,1.9-1.6C402,255.7,397.9,253.5,398.8,251.2z"/>
		</g>
	</g>
	<path id="XMLID_30_" fill="#EBAE20" d="M230.6,41.9l-17.8,7.2c6-2.4,12.2-4.3,18.6-6L230.6,41.9z"/>
	<path id="XMLID_33_" fill="#EBAE20" d="M427.7,366.8l-21.5,21.6l-12.1-12.1c-28,18.7-61,30.6-96.6,33.3v52.6h44.4
		c25.9,0,44.8,24.7,37.9,49.6H158.6c-0.7-3-1-6.2-1-9.1c0-21.8,17.7-40.5,40.6-40.5h46.9v-55.3C150.3,389.9,78.4,307,78.4,207.2
		c0-79.7,45.9-148.8,112.8-182l-5.6-13.7L213.8,0l17.1,41.8l-0.3,0.1l-17.8,7.2l-4.2,1.7c-60.6,25.7-98.5,85.1-98.5,156.3
		c0,94.8,76.8,171.6,171.6,171.6c42.4,0,81.3-15.4,111.2-41l2.8-2.8L427.7,366.8z"/>
</g>
</svg>
