<?xml version="1.0" encoding="utf-8"?>
<!-- Generator: Adobe Illustrator 19.0.0, SVG Export Plug-In . SVG Version: 6.00 Build 0)  -->
<svg version="1.1" id="Layer_1" xmlns="http://www.w3.org/2000/svg" xmlns:xlink="http://www.w3.org/1999/xlink" x="0px" y="0px"
	 viewBox="0 0 512 512" enable-background="new 0 0 512 512" xml:space="preserve">
<g id="XMLID_10_">
	<path id="XMLID_15_" fill="#E7BB20" d="M209.1,299.9V315l-93.4,42l-1.4,0.9c-0.6,0.6-13,11.9-13.6,28.9H12.3
		c0,0-4.8-13.6-10.9-34.2c-6.2-20.6,10.5-35.5,10.5-35.5l96.5-43.4v-20.8l0-0.1c-4.2-3.5-8.1-7.6-11.6-12.1
		c-7.4-9.6-13.1-21.1-16.7-34c-6.9-0.5-12.5-8.5-12.5-18.4c0-7.9,3.6-14.7,8.7-17.3c2.5-47.6,34.1-85.2,72.8-85.2
		c0.6,0,1.3,0,1.9,0.1h0.4c0.6-0.1,1.3-0.1,1.9-0.1c28.6,0,53.3,20.6,65.3,50.5c-22.7,14.8-39,43.1-41.5,76.4
		c-5.5,4.2-8.9,11.8-8.9,20.3c0,11.1,5.6,20.2,13.5,22.9c3.7,12.2,9.3,23.2,16.7,32.7C201.9,292.8,205.4,296.5,209.1,299.9z"/>
	<path id="XMLID_13_" fill="#E7BB20" d="M234.9,188.4c0,9.9-5.5,17.9-12.4,18.4c-3.5,12.9-9.3,24.4-16.7,34
		c-3.5,4.5-7.4,8.6-11.6,12.1l0.1,0.1v6.4c-1.2-3-2.2-6.1-3-9.3l-1-3.6l-3.7-0.3c-3.7-0.2-7.6-5.6-7.6-13.1c0-6.6,3-11.2,5.8-12.6
		l2.7-1.4l0.2-3c1.6-29.9,15.2-55.6,34.6-69.4c2.2,7.7,3.6,15.9,4,24.4C231.3,173.7,234.9,180.5,234.9,188.4z"/>
	<path id="XMLID_17_" fill="#E7BB20" d="M301.3,352.6c-6.1,20.6-10.9,34.2-10.9,34.2H111.3c0.5-10.8,7.5-18.5,9.6-20.5l95-42.7l0,0
		c1.4-2.1,2.8-3.8,3.8-4.9v-18.9l2.6-2.6l-4.4-3.7c-3.9-3.3-7.5-7.1-10.8-11.3c-1-1.3-2-2.7-3-4.2l52,23.4l34.8,15.6
		C290.8,317.1,307.5,332,301.3,352.6z"/>
	<path id="XMLID_23_" fill="#E7BB20" d="M277.1,188.4c0-7.9,3.6-14.7,8.7-17.3c0.5-9.1,2-17.8,4.4-25.9
		c20.6,13.4,35.2,39.8,36.8,70.9l0.2,3l2.7,1.4c2.8,1.4,5.8,6,5.8,12.6c0,7.5-3.9,12.9-7.6,13.1l-3.7,0.3l-1,3.6
		c-1.5,5.4-3.4,10.6-5.7,15.5v-12.6l0.1-0.1c-4.2-3.5-8.1-7.6-11.6-12.1c-7.4-9.6-13.1-21.1-16.7-34
		C282.6,206.3,277.1,198.3,277.1,188.4z"/>
	<path id="XMLID_25_" fill="#E7BB20" d="M393.8,366.2c2.1,2.1,9,9.8,9.6,20.5H221.6c0,0-4.8-13.6-10.9-34.2
		c-3.7-12.4,0.9-22.8,5.1-29l0,0c1.4-2.1,2.8-3.8,3.8-4.9c0.9-1,1.6-1.6,1.6-1.6l34.8-15.6l55.8-25c-1.3,2-2.7,4-4.1,5.8
		c-3.3,4.2-6.9,8-10.8,11.3l-4.3,3.7l2.5,2.5v22L393.8,366.2z"/>
	<path id="XMLID_26_" fill="#E7BB20" d="M510.6,352.6c-6.2,20.6-10.9,34.2-10.9,34.2h-85.8c-0.6-17-13-28.3-13.6-28.9L305.5,315
		v-15.1c3.7-3.4,7.3-7.1,10.5-11.2c7.3-9.5,13-20.5,16.7-32.7c7.9-2.7,13.5-11.8,13.5-22.9c0-8.5-3.4-16.1-8.9-20.3
		c-2.6-34.3-19.7-63.3-43.6-77.7c12.1-29.2,36.6-49.2,64.7-49.2c0.6,0,1.3,0,1.9,0.1h0.4c0.6-0.1,1.3-0.1,1.9-0.1
		c38.7,0,70.3,37.7,72.8,85.2c5,2.6,8.7,9.4,8.7,17.3c0,9.9-5.5,17.9-12.5,18.4c-3.5,12.9-9.2,24.4-16.7,34
		c-3.5,4.5-7.4,8.6-11.6,12.1l0,0.1v20.8l96.5,43.4C500.1,317.1,516.8,332,510.6,352.6z"/>
	<g id="XMLID_14_">
		<path id="XMLID_32_" fill="#E98624" d="M402.3,395.7c-4.2,14.2-7.9,25.1-9.6,30.4H122c-1.8-5.3-5.4-16.2-9.6-30.4
			c-0.9-3.2-1.2-6.2-1.1-9c0.5-10.8,7.5-18.5,9.6-20.5l95-42.7l0,0c1.4-2.1,2.8-3.8,3.8-4.9v-18.9l2.6-2.6l-4.4-3.7
			c-3.9-3.3-7.5-7.1-10.8-11.3c-1-1.3-2-2.7-3-4.2c-3.8-5.7-7.1-12-9.7-18.7c-1.2-3-2.2-6.1-3-9.3l-1-3.6l-3.7-0.3
			c-3.7-0.2-7.6-5.6-7.6-13.1c0-6.6,3-11.2,5.8-12.6l2.7-1.4l0.2-3c1.6-29.9,15.2-55.6,34.6-69.4c9.8-6.9,21-10.9,32.9-10.9
			c0.5,0,1,0,1.9,0.1l0.9,0c0.5,0,1,0,1.5,0c11,0,21.4,3.4,30.7,9.4c20.6,13.4,35.2,39.8,36.8,70.9l0.2,3l2.7,1.4
			c2.8,1.4,5.8,6,5.8,12.6c0,7.5-3.9,12.9-7.6,13.1l-3.7,0.3l-1,3.6c-1.5,5.4-3.4,10.6-5.7,15.5c-1.8,3.8-3.8,7.4-6,10.8
			c-1.3,2-2.7,4-4.1,5.8c-3.3,4.2-6.9,8-10.8,11.3l-4.3,3.7l2.5,2.5v22l98.8,44.4c2.1,2.1,9,9.8,9.6,20.5
			C403.5,389.5,403.2,392.5,402.3,395.7z"/>
		<path id="XMLID_7_" fill="#F1F2F2" d="M194.3,272.1v1.6l1.2,0.5C195,273.6,194.7,272.9,194.3,272.1z M215.8,323.5l3.8-1.7v-3.2
			C218.6,319.7,217.2,321.4,215.8,323.5z M215.8,323.5l3.8-1.7v-3.2C218.6,319.7,217.2,321.4,215.8,323.5z M194.3,272.1v1.6l1.2,0.5
			C195,273.6,194.7,272.9,194.3,272.1z"/>
	</g>
</g>
</svg>
