<?xml version="1.0" encoding="utf-8"?>
<!-- Generator: Adobe Illustrator 19.0.0, SVG Export Plug-In . SVG Version: 6.00 Build 0)  -->
<svg version="1.1" id="Layer_1" xmlns="http://www.w3.org/2000/svg" xmlns:xlink="http://www.w3.org/1999/xlink" x="0px" y="0px"
	 viewBox="0 0 512 512" enable-background="new 0 0 512 512" xml:space="preserve">
<path id="XMLID_18_" fill="#E78924" d="M503.4,141.4L362,0H150L8.6,141.4L0,150v212l150,150h212l150-150V150L503.4,141.4z
	 M362.6,321.4c6.2,6.2,6.2,16.1,0,22.1L342,364.1c-6.1,6.2-16,6.2-22.1,0L255,299.3l-64.8,64.8c-6.1,6.2-16.1,6.2-22.1,0l-20.6-20.6
	c-6.1-6.1-6.1-16,0-22.1l64.8-64.8l-64.8-64.8c-6.1-6.2-6.1-16.1,0-22.1l20.6-20.6c6.1-6.2,16.1-6.2,22.1,0l64.8,64.8l64.8-64.8
	c6.2-6.2,16.1-6.2,22.1,0l20.6,20.6c6.2,6.1,6.2,16,0,22.1l-64.8,64.8L362.6,321.4z"/>
</svg>
