<?xml version="1.0" encoding="utf-8"?>
<!-- Generator: Adobe Illustrator 19.0.0, SVG Export Plug-In . SVG Version: 6.00 Build 0)  -->
<svg version="1.1" id="Layer_1" xmlns="http://www.w3.org/2000/svg" xmlns:xlink="http://www.w3.org/1999/xlink" x="0px" y="0px"
	 viewBox="0 0 512 512" enable-background="new 0 0 512 512" xml:space="preserve">
<g id="XMLID_1_">
	<g id="XMLID_6_">
		<g id="XMLID_2_">
			<g id="XMLID_3_">
				<path id="XMLID_44_" fill="#E78B24" d="M512,256c0,65.3-24.6,127.5-69.2,175.1c-44.4,47.4-104.5,75.9-169.1,80.3
					c-5.8,0.4-11.7,0.7-17.7,0.7c-6,0-12-0.2-17.8-0.7l-0.4,0c-1-0.2-2.1-0.3-3.1-0.5c-62.9-5.8-121.1-34-164.6-79.8
					C24.9,383.4,0,321.2,0,255.8S24.9,128.2,70.2,80.6C115.2,33.2,176,4.7,241.4,0.3l0,0.1C246.5,0.1,251.3,0,256,0
					c5.5,0,11.1,0.2,17.2,0.6c0.1,0,0.3,0,0.4,0c64.5,4.5,124.5,33,169,80.3C487.3,128.5,512,190.7,512,256z M376.2,131.6
					c0-60.3-44.7-112-104-120.2c-5.7-0.3-11.1-0.5-16.2-0.5c-5.3,0-10.9,0.2-16.9,0.6l0-0.1C110.9,21.5,10.9,128.3,10.9,255.8
					c0,107.8,71.5,200.8,171.1,233.1c-8.3-5.9-16-12.8-22.8-20.7c-20.5-23.6-31.8-54-31.8-85.5c0-71.6,57.7-129.8,128.6-129.8
					C322.2,252.9,376.2,198.5,376.2,131.6z M273.2,6l0.1-0.5c0,0,0,0,0,0L273.2,6c-0.2,0-0.4,0-0.7,0l0,0.5c0.2,0,0.4,0.1,0.6,0.1
					L273.2,6L273.2,6z M272.3,506.5l-0.1-0.5l-0.1-0.6c-10,0.7-20.5,0.8-30.6,0.3c-1.4-0.1-2.7-0.2-4-0.3l0,0.4l0,0.1l-0.1,0.6
					c1.3,0.2,2.7,0.4,4.1,0.5c4.4,0.5,8.9,0.7,13.4,0.7C260.8,507.8,266.7,507.3,272.3,506.5z M270.7,383.9
					c0-8.1-6.6-14.8-14.8-14.8c-0.2,0-0.4,0-0.5,0c-0.2,0-0.4,0-0.5,0c-8.1,0-14.8,6.6-14.8,14.8c0,8.1,6.6,14.8,14.8,14.8
					c0.2,0,0.4,0,0.5,0c0.2,0,0.4,0,0.5,0C264.1,398.7,270.7,392.1,270.7,383.9z M242,500.7l0-0.2c-1.9-0.1-3.9-0.3-5.8-0.5
					c1,0.2,2,0.3,3.1,0.5C240.1,500.6,241,500.7,242,500.7z M238.8,6l0-0.5c0,0,0,0,0,0L238.8,6z"/>
				<path id="XMLID_41_" fill="#F6F7FB" d="M272.2,11.4c59.3,8.3,104,59.9,104,120.2c0,66.9-53.9,121.3-120.2,121.3
					c-70.9,0-128.6,58.2-128.6,129.8c0,31.5,11.3,61.8,31.8,85.5c6.8,7.8,14.5,14.8,22.8,20.7C82.3,456.7,10.9,363.6,10.9,255.8
					c0-127.5,100-234.3,228.2-244.5l0,0.1c6-0.4,11.5-0.6,16.9-0.6C261.1,10.9,266.5,11,272.2,11.4z M270.2,125.6
					c0-7.8-6.3-14.2-14.2-14.2c-7.8,0-14.2,6.4-14.2,14.2c0,7.8,6.4,14.2,14.2,14.2C263.9,139.9,270.2,133.5,270.2,125.6z"/>
				<path id="XMLID_40_" fill="#E78B24" d="M273.6,0.6L273.6,0.6c-0.1,0-0.3,0-0.4,0C273.3,0.6,273.4,0.6,273.6,0.6z"/>
				<path id="XMLID_39_" fill="#E78B24" d="M273.3,5.5L273.2,6L273.3,5.5C273.3,5.5,273.3,5.5,273.3,5.5z"/>
				<path id="XMLID_38_" fill="#E78B24" d="M273.2,6L273.2,6l-0.1,0.5c-0.2,0-0.4-0.1-0.6-0.1l0-0.5C272.8,6,273,6,273.2,6z"/>
				<path id="XMLID_37_" fill="#E78B24" d="M272.3,506l0.1,0.5c-5.6,0.9-11.5,1.3-17.4,1.3c-4.5,0-9-0.2-13.4-0.7l0.1-0.9
					c4.7,0.3,9.6,0.4,14.4,0.4C261.4,506.6,266.9,506.4,272.3,506z"/>
				<path id="XMLID_36_" fill="#E78B24" d="M272.2,505.4l0.1,0.6c-5.4,0.4-10.8,0.6-16.3,0.6c-4.8,0-9.6-0.2-14.4-0.4l0-0.5
					C251.7,506.2,262.2,506.1,272.2,505.4z"/>
				<path id="XMLID_33_" fill="#E78B24" d="M269.6,383.9c0,0.5,0,0.9-0.1,1.4c0,0.2,0,0.4-0.1,0.7c0,0.2-0.1,0.4-0.1,0.6
					c-1.2,6.3-6.8,11-13.4,11c-0.2,0-0.4,0-0.5,0c7.3-0.3,13.1-6.3,13.1-13.7c0-7.4-5.8-13.4-13.1-13.7c0.2,0,0.4,0,0.5,0
					c6.6,0,12.1,4.7,13.4,10.9c0.1,0.2,0.1,0.4,0.1,0.7c0,0.2,0.1,0.5,0.1,0.7C269.6,383,269.6,383.5,269.6,383.9z"/>
				<path id="XMLID_29_" fill="#E78B24" d="M269.6,383.9c0-0.5,0-0.9-0.1-1.4c0-0.2-0.1-0.5-0.1-0.7c0-0.2-0.1-0.4-0.1-0.7
					c-0.8-4.1-3.3-7.7-6.8-9.8c4.5,2.4,7.6,7.1,7.6,12.6c0,5.6-3.1,10.3-7.8,12.7c3.6-2.1,6.2-5.8,6.9-10c0-0.2,0.1-0.4,0.1-0.6
					c0-0.2,0.1-0.4,0.1-0.7C269.6,384.9,269.6,384.4,269.6,383.9z"/>
				<path id="XMLID_25_" fill="#E78B24" d="M270.2,383.9c0-5.4-3.1-10.2-7.6-12.6c-2.1-1.3-4.5-2.1-7.2-2.2c0.2,0,0.4,0,0.5,0
					c8.1,0,14.8,6.6,14.8,14.8c0,8.1-6.6,14.8-14.8,14.8c-0.2,0-0.4,0-0.5,0c2.6-0.1,4.9-0.8,7-2.1
					C267,394.3,270.2,389.5,270.2,383.9z"/>
				<path id="XMLID_23_" fill="#E78B24" d="M262.6,371.4c3.5,2.1,6,5.7,6.8,9.8c-1.3-6.2-6.8-10.9-13.4-10.9c-0.2,0-0.4,0-0.5,0
					c-0.2,0-0.4,0-0.5,0c-2.2,0-4.3,0.5-6.2,1.5c2.1-1.3,4.6-2,7.3-2C258.4,369.7,260.6,370.3,262.6,371.4z"/>
				<path id="XMLID_22_" fill="#E78B24" d="M269.4,386.6c-0.8,4.2-3.4,7.9-6.9,10c-1.9,1-4.1,1.5-6.5,1.5c-2.8,0-5.4-0.8-7.6-2.2
					c1.9,1.1,4.2,1.7,6.5,1.7c0.2,0,0.4,0,0.5,0c0.2,0,0.4,0,0.5,0C262.6,397.6,268.1,392.9,269.4,386.6z"/>
				<path id="XMLID_21_" fill="#E78B24" d="M256,111.4c7.9,0,14.2,6.4,14.2,14.2c0,7.8-6.3,14.2-14.2,14.2
					c-7.8,0-14.2-6.4-14.2-14.2C241.7,117.8,248.1,111.4,256,111.4z"/>
				<path id="XMLID_20_" fill="#E78B24" d="M262.6,371.4c-2-1-4.2-1.6-6.6-1.6c-2.7,0-5.2,0.7-7.3,2c0,0,0,0-0.1,0
					c-3.9,2-6.7,5.8-7.3,10.3c0.9-7.1,6.8-12.7,14.1-12.9C258,369.3,260.5,370,262.6,371.4z"/>
				<path id="XMLID_19_" fill="#E78B24" d="M256,398.2c2.3,0,4.5-0.6,6.5-1.5c-2.1,1.2-4.5,2-7,2.1c-7-0.2-12.8-5.4-14-12.2
					c0.8,4.1,3.4,7.5,6.9,9.5h0C250.6,397.4,253.2,398.2,256,398.2z"/>
				<path id="XMLID_18_" fill="#E78B24" d="M254.9,369.2c0.2,0,0.4,0,0.5,0c-7.3,0.3-13.2,5.8-14.1,12.9c0,0.3-0.1,0.7-0.1,1.1
					c0,0.2,0,0.5,0,0.8c0,0.2,0,0.5,0,0.8c0,0.3,0,0.7,0.1,1c0,0.3,0.1,0.6,0.1,0.8c1.2,6.8,6.9,12,14,12.2c-0.2,0-0.4,0-0.5,0
					c-8.1,0-14.8-6.6-14.8-14.8C240.1,375.8,246.7,369.2,254.9,369.2z"/>
				<path id="XMLID_16_" fill="#E78B24" d="M254.9,370.3c0.2,0,0.4,0,0.5,0c-7.3,0.3-13.1,6.3-13.1,13.7c0,7.3,5.8,13.4,13.1,13.7
					c-0.2,0-0.4,0-0.5,0c-2.3,0-4.6-0.6-6.5-1.7h0c-4-2.5-6.6-6.9-6.6-12c0-5.1,2.8-9.7,6.9-12.1c0,0,0,0,0.1,0
					C250.5,370.8,252.6,370.3,254.9,370.3z"/>
				<path id="XMLID_15_" fill="#E78B24" d="M248.4,396c-3.6-1.9-6.2-5.4-6.9-9.5c-0.1-0.3-0.1-0.5-0.1-0.8c0-0.3-0.1-0.6-0.1-1
					c0-0.2,0-0.5,0-0.8c0-0.2,0-0.5,0-0.8c0-0.4,0.1-0.7,0.1-1.1c0.6-4.5,3.4-8.3,7.3-10.3c-4.1,2.5-6.9,7-6.9,12.1
					C241.7,389,244.4,393.4,248.4,396z"/>
				<path id="XMLID_13_" fill="#E78B24" d="M242,500.5l0,0.2c-0.9,0-1.8-0.1-2.8-0.2c-1-0.2-2-0.3-3.1-0.5
					C238.1,500.2,240,500.4,242,500.5z"/>
				<path id="XMLID_12_" fill="#E78B24" d="M241.6,505.7l0,0.5c-1-0.1-2-0.1-3-0.2c-0.4-0.1-0.7-0.1-1.1-0.2l0-0.4
					C238.9,505.5,240.3,505.6,241.6,505.7z"/>
				<path id="XMLID_10_" fill="#E78B24" d="M241.6,506.1l-0.1,0.9c-1.4-0.2-2.7-0.3-4.1-0.5l0.1-0.6c0.4,0,0.7,0.1,1.1,0.1
					C239.6,506,240.6,506.1,241.6,506.1z"/>
				<path id="XMLID_9_" fill="#E78B24" d="M238.7,5.5l0,0.5L238.7,5.5C238.7,5.5,238.7,5.5,238.7,5.5z"/>
				<path id="XMLID_5_" fill="#E78B24" d="M238.6,505.9c-0.4,0-0.7-0.1-1.1-0.1l0-0.1C237.9,505.8,238.3,505.9,238.6,505.9z"/>
			</g>
			<g id="XMLID_4_">
			</g>
		</g>
	</g>
</g>
</svg>
