<?xml version="1.0" encoding="utf-8"?>
<!-- Generator: Adobe Illustrator 19.0.0, SVG Export Plug-In . SVG Version: 6.00 Build 0)  -->
<svg version="1.1" id="Layer_1" xmlns="http://www.w3.org/2000/svg" xmlns:xlink="http://www.w3.org/1999/xlink" x="0px" y="0px"
	 viewBox="0 0 512 512" enable-background="new 0 0 512 512" xml:space="preserve">
<g id="XMLID_1_">
	<path id="XMLID_16_" fill="#E7BF20" d="M262.2,88.2l-39.5-39.5l48.4-48.4c0,0,0.1,0,0.2,0l39.3,39.3c0,0,0,0.1,0,0.1L262.2,88.2z"
		/>
	<path id="XMLID_14_" fill="#EA7C25" d="M409.9,255.9l43.6,43.6L292.3,460.8c-68.4,68.4-180.1,68.1-246.2-2.5
		C15.4,425.7,0,383.8,0,342c0-43.6,16.7-87.2,49.9-120.4L212.8,58.7l39.5,39.5l-161,161c-21.8,21.8-32.7,50.3-32.7,78.8
		c0,27.5,10.1,55,30.4,76.5c43.4,46,116.7,45.8,161.3,1.1L409.9,255.9z"/>
	<path id="XMLID_18_" fill="#E7BF20" d="M512,241.1l-48.4,48.4l-43.6-43.6l48.4-48.4c0,0,0.1,0,0.1,0L512,241
		C512,241,512,241.1,512,241.1z"/>
</g>
</svg>
