<?xml version="1.0" encoding="utf-8"?>
<!-- Generator: Adobe Illustrator 19.0.0, SVG Export Plug-In . SVG Version: 6.00 Build 0)  -->
<svg version="1.1" id="Layer_1" xmlns="http://www.w3.org/2000/svg" xmlns:xlink="http://www.w3.org/1999/xlink" x="0px" y="0px"
	 viewBox="0 0 512 512" enable-background="new 0 0 512 512" xml:space="preserve">
<g id="XMLID_6_">
	<circle id="XMLID_3_" fill="#E7BF20" cx="256.5" cy="67" r="67"/>
	<g id="XMLID_5_">
		<path id="XMLID_14_" fill="none" d="M256.5,403v22.8h-77C179.6,425.7,214.2,406.3,256.5,403z"/>
		<polygon id="XMLID_13_" fill="#E7BC20" points="256.5,152.4 256.5,167.5 229.4,167.8 228.9,167.8 228.9,152.4 		"/>
		<path id="XMLID_24_" fill="#E7BC20" d="M256.5,166.7h-27.6c-16.7,0-33.6-0.7-50.3,0c-8.9,0.4-12.8,8-16.1,15.6
			c-7.3,16.8-13.2,34.3-19.9,51.4c-3.3,8.6-7.1,17-9.8,25.8c-8.4,27-45.6,27.9-67.8,21.1c-7.2-2.2-8.7-9.4-15.1-13
			c-14-7.9-26.3,4.5-29.1,17.7c-2.6,13,0.4,29.1,10.8,38c15.2,13.1,37,13.3,56,12.8c19.9-0.4,43.9,2.1,61.2-9.8
			c8-5.5,11.7-15.3,15.9-23.6c5.8-11.3,11.6-22.6,17.4-33.9c0.4,23.3,0.4,46.5,0.6,69.7c0,8.8,1.4,11.2-6.9,15
			c-10.9,5-21.8,10-32.7,15.1c-14.8,6.9-29.9,13.2-44.3,20.7c-11.7,6.2-25.1,14.3-29.9,27.3c-4.8,13,0.8,27.6,14.4,31.5
			c12.8,3.7,26.3,2.8,39.1,7.2c5.9,2,13,5.1,15.8,11.1c3.1,6.3,0.2,14.9-0.2,21.6c-0.4,8.3,1.3,16.7,9.1,21.2
			c4.6,2.7,17.6,4.7,21.5,0c1.8-2.1,1.7-8.2,2.9-10.9c1.7-4.3,4.4-8.1,8.3-10.7c8.3-5.4,21.5-4.7,31.1-5.2
			c15.1-0.9,30.4-1.7,45.5-1.7v-54.9h-77c0,0,34.6-19.4,77-22.8V166.7z"/>
	</g>
	<g id="XMLID_7_">
		<path id="XMLID_11_" fill="none" d="M255.5,403v22.8h77C332.4,425.7,297.8,406.3,255.5,403z"/>
		<polygon id="XMLID_10_" fill="#E7BC20" points="255.5,152.4 255.5,167.5 282.6,167.8 283.1,167.8 283.1,152.4 		"/>
		<path id="XMLID_8_" fill="#E7BC20" d="M255.5,403c42.4,3.3,77,22.8,77,22.8h-77v54.9c15.1,0.1,30.4,0.9,45.5,1.7
			c9.6,0.5,22.8-0.2,31.1,5.2c3.9,2.5,6.6,6.4,8.3,10.7c1.2,2.8,1.1,8.8,2.9,10.9c3.9,4.7,16.9,2.7,21.5,0c7.8-4.5,9.5-13,9.1-21.2
			c-0.4-6.7-3.3-15.3-0.2-21.6c2.8-6,9.9-9.1,15.8-11.1c12.8-4.4,26.4-3.6,39.1-7.2c13.6-3.9,19.2-18.5,14.4-31.5
			c-4.9-13-18.3-21.2-29.9-27.3c-14.4-7.5-29.6-13.8-44.3-20.7c-10.9-5.1-21.8-10.1-32.7-15.1c-8.3-3.8-6.9-6.2-6.9-15
			c0.2-23.2,0.2-46.4,0.6-69.7c5.8,11.3,11.6,22.6,17.4,33.9c4.3,8.3,7.9,18.1,15.9,23.6c17.2,11.9,41.2,9.3,61.2,9.8
			c19,0.4,40.8,0.3,56-12.8c10.4-8.9,13.4-25,10.8-38c-2.8-13.2-15.1-25.6-29.1-17.7c-6.4,3.6-7.9,10.9-15.1,13
			c-22.2,6.8-59.4,5.9-67.8-21.1c-2.7-8.8-6.4-17.2-9.8-25.8c-6.7-17.1-12.5-34.6-19.9-51.4c-3.3-7.5-7.2-15.2-16.1-15.6
			c-16.7-0.7-33.5,0-50.3,0h-27.6V403z"/>
	</g>
</g>
</svg>
