<?xml version="1.0" encoding="utf-8"?>
<!-- Generator: Adobe Illustrator 19.0.0, SVG Export Plug-In . SVG Version: 6.00 Build 0)  -->
<svg version="1.1" id="Layer_1" xmlns="http://www.w3.org/2000/svg" xmlns:xlink="http://www.w3.org/1999/xlink" x="0px" y="0px"
	 viewBox="0 0 512 512" enable-background="new 0 0 512 512" xml:space="preserve">
<g id="XMLID_4_">
	<path id="XMLID_29_" fill="#E9B620" d="M171.1,345.2c-4.9-4.1-10.8-6-17-7.2c-2.6-0.5-5.3-0.9-8.1-1.2c-8.2-0.9-16.9-0.5-24.1,2.9
		c-4.4,2.1-7.8,5.7-8.7,10.5c-0.8,4.2,0.3,8.5,0.3,12.7c-0.1,4.3-1,8.6-2.5,12.7c-5,13.1-15.4,22.4-26.8,30.1
		c7.4,6.6,15,12.8,23,18.6c0.2,0.2,0.4,0.3,0.6,0.5h0c12.4-1.4,24.4-6.5,35.1-12.6c15.5-9,32.4-23.9,35.9-42.4
		c0.1-0.4,0.2-0.9,0.2-1.3C180.5,359.6,177.9,350.9,171.1,345.2z M490.5,197.3c-15.6-31.5-38.5-57.6-65.4-79.3l-4.1,4.5L392.9,156
		c-49.2,86-97.4,138-133.4,168.6c-36,30.5-59.6,39.6-59.6,39.6c-2.9,3.2-6.7,5.1-11,5.8c-4.3,22.1-26.6,39.8-47.2,50.5
		c-7.8,4-16.2,7.7-24.9,10.4c49.5,32.6,109,49.5,168.3,49.6c50.6,0,101.9-12.3,144.2-40.1c33.1-21.8,57.1-54.6,72.6-90.8
		c1.8-4.3,3.5-8.6,5.1-12.9C517.3,290,511.7,239.9,490.5,197.3z M291.7,416.9c-24.6,0-44.5-12.9-44.5-28.9
		c0-15.9,19.9-28.9,44.5-28.9c24.6,0,44.5,13,44.5,28.9C336.2,404,316.3,416.9,291.7,416.9z M397.5,383.2
		c-19.9,0-36.1-15.3-36.1-34.3c0-18.9,16.2-34.3,36.1-34.3c20,0,36.1,15.3,36.1,34.3C433.6,367.9,417.5,383.2,397.5,383.2z
		 M422.8,274.9c-19.9,0-36.1-12.7-36.1-28.3c0-15.6,16.2-28.3,36.1-28.3c20,0,36.1,12.7,36.1,28.3
		C458.9,262.3,442.8,274.9,422.8,274.9z M279.2,45.7c-25.7-7.7-52.1-14-78.9-14c-38.8,0-98.1,15.2-75.8,65.5
		c6,13.5,15.1,25.6,19,39.8c6.2,22.8-2.7,48.3-19.7,64.7c-17,16.4-41.1,24.4-64.8,24.8c-10.6,0.2-21.4-1-31.8,0.8S6.2,234.8,2,244.6
		c-3.5,8.2-1.9,17.6,0.3,26.3c12.3,50.2,40.3,96,78.1,131.2c8.4-6.8,15.4-14.8,19.5-24.5c2-4.7,3.2-9.8,3.3-14.8
		c0.1-5-1.4-10-0.3-14.9c1.3-5.7,5.7-9.9,11.4-12.3c9.3-4,20.5-4.4,31.1-3.4c-0.4-6.4,1.6-12.3,6.1-16.3c0,0,34.9-93,206.8-191.3
		l32.9-30.1C356.1,72.7,317.1,57,279.2,45.7z M187,151c-16,0-28.9-12.9-28.9-28.9c0-16,12.9-28.9,28.9-28.9s28.9,12.9,28.9,28.9
		C215.9,138.1,203,151,187,151z M398,98.5l-1.4,1.3l-30.8,28.8l0,0c-151.7,100.2-192,179.5-192,179.5c-4.6,4.3-6.9,10.1-6.9,16
		c0,4.8,1.6,9.6,4.8,13.6c0.5,0.6,1,1.2,1.6,1.8c0.5,0.5,1,1,1.6,1.5c0,0,0,0,0.1,0c0.5,0.6,0.9,1.1,1.5,1.6
		c2.4,2.4,5.3,4.2,8.3,5.2c2.3,0.8,4.7,1.2,7.1,1.2c5.8,0,11.7-2.3,16-6.9c0,0,79.3-40.2,179.5-192l0.1-0.1l28.8-30.8l4.5-4.8
		C413.3,108.9,405.8,103.5,398,98.5z"/>
	<path id="XMLID_21_" fill="#FFFFFF" d="M173.2,339.6c-0.6-0.6-1.1-1.2-1.6-1.8c2.5,1.1,4.9,2.5,7.1,4.1c2.4,1.8,4.3,3.8,5.9,6
		c-3-1-5.9-2.8-8.3-5.2c-0.5-0.5-1-1-1.5-1.6c0,0,0,0-0.1,0C174.2,340.6,173.7,340.1,173.2,339.6z"/>
	<path id="XMLID_19_" fill="#FFFFFF" d="M179.1,368.3c-0.1,0.4-0.1,0.9-0.2,1.3c-3.5,18.5-20.4,33.5-35.9,42.4
		c-10.7,6.1-22.7,11.2-35.1,12.6h0c-1,0.1-2,0.2-3,0.3c-10.9,0.7-25.7-1.8-31.2-12.6c3.5-2.1,7.1-4.4,10.6-6.7
		c11.4-7.7,21.8-17,26.8-30.1c1.5-4,2.4-8.3,2.5-12.7c0.1-4.2-1.1-8.5-0.3-12.7c1-4.9,4.3-8.4,8.7-10.5c7.2-3.4,15.9-3.8,24.1-2.9
		c2.8,0.3,5.5,0.7,8.1,1.2c6.1,1.2,12.1,3.1,17,7.2C177.9,350.9,180.5,359.6,179.1,368.3z"/>
	<path id="XMLID_18_" fill="#FFFFFF" d="M179.1,368.3c-0.1,0.4-0.1,0.9-0.2,1.3c-6.2-1.4-12.6-4.9-18-10.3c-0.7-0.7-1.4-1.5-2.1-2.3
		c0,0,0,0-0.1-0.1c-0.8-0.7-1.5-1.4-2.3-2.1c-5.4-5.4-8.9-11.8-10.3-18.1c2.8,0.3,5.5,0.7,8.1,1.2c6.1,1.2,12.1,3.1,17,7.2
		C177.9,350.9,180.5,359.6,179.1,368.3z"/>
	<path id="XMLID_14_" fill="#FFFFFF" d="M445.8,87.6l-25.2,27l-4.5,4.8l-28.8,30.8l-0.1,0.1C287,302,207.7,342.2,207.7,342.2
		c-4.3,4.6-10.1,6.9-16,6.9c-2.4,0-4.8-0.4-7.1-1.2c-3-1-5.9-2.8-8.3-5.2c-0.5-0.5-1-1-1.5-1.6c0,0,0,0-0.1,0
		c-0.6-0.5-1.1-0.9-1.6-1.5c-0.6-0.6-1.1-1.2-1.6-1.8c-3.2-4-4.8-8.8-4.8-13.6c0-5.9,2.3-11.7,6.9-16c0,0,40.3-79.3,192-179.5l0,0
		l30.8-28.8l1.4-1.3l30.4-28.4c4.8-4.5,12.2-4.3,16.9,0.3l0.3,0.3C450.1,75.3,450.3,82.8,445.8,87.6z"/>
	<path id="XMLID_15_" fill="#EA8224" d="M179.1,368.3c-0.1,0.4-0.1,0.9-0.2,1.3c-3.5,18.5-20.4,33.5-35.9,42.4
		c-10.7,6.1-22.7,11.2-35.1,12.6h0c-1,0.1-2,0.2-3,0.3c-10.9,0.7-25.7-1.8-31.2-12.6c3.5-2.1,7.1-4.4,10.6-6.7
		c11.4-7.7,21.8-17,26.8-30.1c1.5-4,2.4-8.3,2.5-12.7c0.1-4.2-1.1-8.5-0.3-12.7c1-4.9,4.3-8.4,8.7-10.5c7.2-3.4,15.9-3.8,24.1-2.9
		c2.8,0.3,5.5,0.7,8.1,1.2c6.1,1.2,12.1,3.1,17,7.2C177.9,350.9,180.5,359.6,179.1,368.3z"/>
	<path id="XMLID_11_" fill="#EA8224" d="M445.8,87.6l-25.2,27l-4.5,4.8l-28.8,30.8l-0.1,0.1C287,302,207.7,342.2,207.7,342.2
		c-4.3,4.6-10.1,6.9-16,6.9c-2.4,0-4.8-0.4-7.1-1.2c-3-1-5.9-2.8-8.3-5.2c-0.5-0.5-1-1-1.5-1.6c0,0,0,0-0.1,0
		c-0.6-0.5-1.1-0.9-1.6-1.5c-0.6-0.6-1.1-1.2-1.6-1.8c-3.2-4-4.8-8.8-4.8-13.6c0-5.9,2.3-11.7,6.9-16c0,0,40.3-79.3,192-179.5l0,0
		l30.8-28.8l1.4-1.3l30.4-28.4c4.8-4.5,12.2-4.3,16.9,0.3l0.3,0.3C450.1,75.3,450.3,82.8,445.8,87.6z"/>
</g>
</svg>
