<?xml version="1.0" encoding="utf-8"?>
<!-- Generator: Adobe Illustrator 19.0.0, SVG Export Plug-In . SVG Version: 6.00 Build 0)  -->
<svg version="1.1" id="Layer_1" xmlns="http://www.w3.org/2000/svg" xmlns:xlink="http://www.w3.org/1999/xlink" x="0px" y="0px"
	 viewBox="0 0 512 512" enable-background="new 0 0 512 512" xml:space="preserve">
<g id="XMLID_8_">
	<path id="XMLID_3_" fill="#E98524" d="M0,499.7l48.3-169.6c1.7-5.9,7.9-9.1,13.6-6.9C90.8,334.1,170,370.6,186,447.6
		c1.7,8.2-3.8,16.2-12,17.8L0,499.7z"/>
	<path id="XMLID_5_" fill="#FFFFFF" d="M38.8,465l25-74.9c0,0,35.4-2.1,30.2,29.1L38.8,465z"/>
	<path id="XMLID_7_" fill="#E9B620" d="M66.7,313.1L310.4,80c0,0,121.8,9.4,125.9,137.4L208.4,437.9
		C208.4,437.9,184.2,321.4,66.7,313.1z"/>
	<path id="XMLID_6_" fill="#E98524" d="M337.5,65.3c0,0,111.9,22.6,126.2,128.6l48.3-48.5c0,0,6.6-108.3-125.1-133.2L337.5,65.3z"/>
</g>
</svg>
