<?xml version="1.0" encoding="utf-8"?>
<!-- Generator: Adobe Illustrator 19.0.0, SVG Export Plug-In . SVG Version: 6.00 Build 0)  -->
<svg version="1.1" id="Layer_1" xmlns="http://www.w3.org/2000/svg" xmlns:xlink="http://www.w3.org/1999/xlink" x="0px" y="0px"
	 viewBox="0 0 512 512" enable-background="new 0 0 512 512" xml:space="preserve">
<g id="XMLID_5_">
	<circle id="XMLID_3_" fill="#E98824" cx="438.1" cy="62.2" r="62.2"/>
	<path id="XMLID_20_" fill="#E98824" d="M511.3,278.9c0,16.7-13.5,30.2-30.2,30.2c-16.6,0-30.2-13.5-30.2-30.2
		c0-0.9,0.1-1.9,0.2-2.7l-54.3-19.3l-5-1.8l-0.2-0.5l-27.2-57.2l-53.4,63.1l75.3,75.4c10.5,10.5,10.5,27.4,0,37.9l-20.9,21
		L310,454.8l10.3-0.4c21.5-0.9,39.5,15.8,40.4,37.2l0.2,4.4c0.3,6.8-5,12.6-11.9,12.8l-77.3,3.2c-9.1,0.4-16.8-6.7-17.2-15.8
		l-1.4-33.1c0-0.1,0-0.1,0-0.1c-2.3-18.8,3.6-33.5,4.6-35.8c0-0.1,0.1-0.2,0.1-0.2c0.1-0.1,0.1-0.1,0.1-0.1l4.1-4.4l59-64
		l-64.3-64.3l3.3-3.3h-0.1l-3.2,3.2v0.1L186.8,364c-12.1,12.1-31.8,12.1-44,0l-17.1-17.1l-0.1,0.1l-56.1-56l-7.2,7.2
		c-15.1,15.1-39.7,15.1-54.9,0L4.3,295c-4.8-4.8-4.8-12.6,0-17.5L59,222.9c6.5-6.5,16.9-6.5,23.3,0l7.6,7.6l20,20l45.7,45.7
		l50.7-50.8l-0.1-0.1l87.3-103.2h-51L200,184.8c-5.8,12.1-18.2,20.5-32.5,20.5c-20,0-36.2-16.2-36.2-36.2
		c0-19.9,16.2-36.1,36.2-36.1c6,0,11.7,1.5,16.7,4.2L222.4,99l1.6-1.6h106.5c9.6-1.1,19.5,2.1,26.9,9.4l29,29
		c6.6,6.6,9.8,15.3,9.6,24l0.1,0.1l33.1,69.6l54.9,19.5h0.1C499.4,250.4,511.3,263.3,511.3,278.9z"/>
</g>
</svg>
