<?xml version="1.0" encoding="utf-8"?>
<!-- Generator: Adobe Illustrator 19.0.0, SVG Export Plug-In . SVG Version: 6.00 Build 0)  -->
<svg version="1.1" id="Layer_1" xmlns="http://www.w3.org/2000/svg" xmlns:xlink="http://www.w3.org/1999/xlink" x="0px" y="0px"
	 viewBox="0 0 512 512" enable-background="new 0 0 512 512" xml:space="preserve">
<g id="XMLID_1_">
	<path id="XMLID_17_" fill="#E98724" d="M419.4,414.7L300.7,101.8L59,317.3L0,312l48.3,128.8l34-35.8l23,0.6c0,0,0,0,0,0
		c-1,3.8-1.5,7.8-1.5,11.9c0,27.6,22.5,50.1,50.1,50.1l82.3,0c26.6,0,48.9-20.8,50-47.4c0.1-3.1,0.1-6.2-0.4-9
		c0-0.2,0.1-0.3,0.3-0.3L419.4,414.7z M236.2,439l-81.2,0c-8.3,0-16.4-4.2-20.2-11.6c-3.8-7.4-2.8-15.1,0.6-20.9
		c0,0,120.8,3.5,120.8,3.5c0.9,2.3,1.4,4.9,1.4,7.5C257.6,429.3,248,439,236.2,439z"/>
	<path id="XMLID_14_" fill="#E9B520" d="M500.6,417.1l-41.3-1.2c-4.5-0.1-8.5-3-10.1-7.2L328.4,86.6c-1.6-4.3-0.4-9.1,3-12.2
		l30.5-27.2c5.8-5.2,15-2.9,17.7,4.4l131.7,350.5C514,409.5,508.5,417.3,500.6,417.1z"/>
</g>
</svg>
