<?xml version="1.0" encoding="utf-8"?>
<!-- Generator: Adobe Illustrator 19.0.0, SVG Export Plug-In . SVG Version: 6.00 Build 0)  -->
<svg version="1.1" id="Layer_1" xmlns="http://www.w3.org/2000/svg" xmlns:xlink="http://www.w3.org/1999/xlink" x="0px" y="0px"
	 viewBox="0 0 512 512" enable-background="new 0 0 512 512" xml:space="preserve">
<g id="XMLID_2_">
	<g id="XMLID_9_">
		<g id="XMLID_1_">
			<path id="XMLID_8_" fill="#E7BD20" d="M469.9,305.5H350.8c4.5,25.1,11.2,67,10.7,71c-2.5,37.5-26.3,82.9-27.3,84.9
				c-4.2,7.9-26.3,19.1-48.4,14.1c-28.5-6-31.5-24.3-31.3-29.3c0,0,1.2-49.9,1.2-63.1c-13-28.6-56.3-101.4-72.7-113.6V47
				c8.5-5.5,18.8-11.8,32.2-11.8H417c75.5,0,67.3,67,60.6,76.2c12.7,13.9,20.3,38.2,9.7,57.6c8.4,8.9,22.8,33,9.9,57.8
				C523.3,252.9,515.3,305.5,469.9,305.5z"/>
		</g>
	</g>
	<rect id="XMLID_15_" x="0" y="47" fill="#E78924" width="172.1" height="223.6"/>
</g>
</svg>
