<?xml version="1.0" encoding="utf-8"?>
<!-- Generator: Adobe Illustrator 19.0.0, SVG Export Plug-In . SVG Version: 6.00 Build 0)  -->
<svg version="1.1" id="Layer_1" xmlns="http://www.w3.org/2000/svg" xmlns:xlink="http://www.w3.org/1999/xlink" x="0px" y="0px"
	 viewBox="0 0 512 512" enable-background="new 0 0 512 512" xml:space="preserve">
<g id="XMLID_1_">
	<path id="XMLID_18_" fill="#E9B920" d="M465.8,417.2l-39.5,38.9c-11.5,11.3-30.7,10.2-42.4-2.4l-95.8-103.2L187.5,242.1l-62.4-67.3
		l-31.5,40.6C78,231,52.7,231,37.1,215.4l-25.4-25.4c-15.6-15.6-15.6-40.9,0-56.4l87.4-73.7c0,0,0.3-0.2,0.7-0.6
		c2-1.6,7.9-6.2,16.8-10.8c25.5-13.5,75.9-27.8,130.6,23.7c0,0-45.5,9.7-76.2,44.9c-0.9,1.1-2,2.3-2.9,3.5c-1.3,1.5-2.8,3.2-4.4,4.8
		c1.6,0.9,3.2,2,4.7,3.2l72.2,60.2l114.1,95l107.6,89.6C476.3,385,477.8,405.4,465.8,417.2z"/>
	<path id="XMLID_5_" fill="#FFFFFF" d="M240.7,188.9l-53.2,53.2l100.6,108.5l66.7-66.7L240.7,188.9z"/>
	<path id="XMLID_16_" fill="#E78924" d="M503.5,98l-64.2,64.2c-19.7,19.7-51.6,19.7-71.3,0c-9.8-9.9-14.8-22.8-14.8-35.7
		c0-12.9,5-25.8,14.8-35.6l62.6-62.6c-12.4-4.3-25.8-6.7-39.7-6.7c-66.9,0-121.1,54.2-121.1,121.1c0,10.8,1.4,21.3,4.1,31.3
		L60.9,387.1c-11.8,11.8-17.8,27.3-17.8,42.8c0,15.5,5.9,31,17.8,42.8c23.6,23.6,61.9,23.6,85.6,0l213.2-213.2
		c10,2.8,20.5,4.2,31.3,4.2c66.9,0,121.1-54.2,121.1-121.1C512,126.9,509,111.8,503.5,98z M162.1,401.7l-22.2,21.9
		c-7.9,7.8-20.7,7.7-28.5-0.2l-6.5-6.5c-7.8-7.9-7.7-20.7,0.2-28.6l22.3-21.9c7.9-7.8,20.7-7.7,28.5,0.2l6.5,6.5
		C170.2,381.1,170,393.9,162.1,401.7z"/>
</g>
</svg>
