<?xml version="1.0" encoding="utf-8"?>
<!-- Generator: Adobe Illustrator 19.0.0, SVG Export Plug-In . SVG Version: 6.00 Build 0)  -->
<svg version="1.1" id="Layer_1" xmlns="http://www.w3.org/2000/svg" xmlns:xlink="http://www.w3.org/1999/xlink" x="0px" y="0px"
	 viewBox="0 0 512 512" enable-background="new 0 0 512 512" xml:space="preserve">
<g id="XMLID_6_">
	<g id="XMLID_3_">
		<path id="XMLID_13_" fill="#E9B920" d="M142.5,105.2l-34.4-90.5c10.6-2.5,21.6-3.9,33-3.9c44.9,0,84.8,21,110.7,53.6L142.5,105.2z
			"/>
		<path id="XMLID_20_" fill="#E9B920" d="M443.9,368L289.6,213.7c-4.9-4.9-10.4-8.8-16.3-11.8c5.9-15.5,9-32.3,9-49.8
			c0-24.3-6.1-47.2-16.9-67.2l-124,46.1l-51.3,19.5L49.8,44.5C19.3,70.3,0,108.9,0,152c0,78,63.2,141.2,141.2,141.2
			c15.1,0,29.7-2.4,43.3-6.8c3.1,6.9,7.5,13.4,13.2,19.1l154.4,154.4c12.7,12.7,29.3,19.1,45.9,19.1s33.2-6.3,45.9-19.1
			C469.3,434.5,469.3,393.4,443.9,368z M374.2,389.3c-9.7,9.6-25.2,9.6-34.9,0l-92.6-92.7c-9.7-9.6-9.7-25.2,0-34.8
			c4.8-4.8,11.2-7.2,17.4-7.2c6.3,0,12.7,2.4,17.5,7.2l92.6,92.6C383.9,364,383.9,379.7,374.2,389.3L374.2,389.3z M401.4,442.9
			c-13.6,0-24.6-11-24.6-24.7c0-13.6,11-24.6,24.6-24.6c13.6,0,24.6,11,24.6,24.6C426.1,431.9,415,442.9,401.4,442.9z"/>
	</g>
	<path id="XMLID_22_" fill="#E98024" d="M220.6,423.9l0.1,0.1L161,483.7c-23.3,23.3-61,23.3-84.3,0c-11.6-11.6-17.5-26.9-17.5-42.2
		c0-15.2,5.9-30.5,17.5-42.1l35.4-35.4c0.9-1.1,1.8-2.1,2.8-3.1l59.7-59.7l84.3,84.4L220.6,423.9z"/>
	<polygon id="XMLID_5_" fill="#E98C23" points="312.1,221.2 380.2,159.9 401.4,104.7 477.1,53.2 512,86.8 470.6,158.2 415.9,177.8 
		344.5,249.2 	"/>
</g>
</svg>
